<?xml version="1.0" encoding="UTF-8" standalone="no"?>
<svg
   xmlns:dc="http://purl.org/dc/elements/1.1/"
   xmlns:cc="http://creativecommons.org/ns#"
   xmlns:rdf="http://www.w3.org/1999/02/22-rdf-syntax-ns#"
   xmlns:svg="http://www.w3.org/2000/svg"
   xmlns="http://www.w3.org/2000/svg"
   xmlns:sodipodi="http://sodipodi.sourceforge.net/DTD/sodipodi-0.dtd"
   xmlns:inkscape="http://www.inkscape.org/namespaces/inkscape"
   version="1.1"
   id="svg10"
   width="414.79654"
   height="106.55775"
   viewBox="0 0 414.79654 106.55775"
   sodipodi:docname="logo.svg"
   inkscape:version="1.0.2-2 (e86c870879, 2021-01-15)">
  <metadata
     id="metadata16">
    <rdf:RDF>
      <cc:Work
         rdf:about="">
        <dc:format>image/svg+xml</dc:format>
        <dc:type
           rdf:resource="http://purl.org/dc/dcmitype/StillImage" />
        <dc:title></dc:title>
      </cc:Work>
    </rdf:RDF>
  </metadata>
  <defs
     id="defs14" />
  <sodipodi:namedview
     pagecolor="#ffffff"
     bordercolor="#666666"
     borderopacity="1"
     objecttolerance="10"
     gridtolerance="10"
     guidetolerance="10"
     inkscape:pageopacity="0"
     inkscape:pageshadow="2"
     inkscape:window-width="1366"
     inkscape:window-height="715"
     id="namedview12"
     showgrid="false"
     inkscape:zoom="0.882"
     inkscape:cx="122.59287"
     inkscape:cy="227.24851"
     inkscape:window-x="-8"
     inkscape:window-y="-8"
     inkscape:window-maximized="1"
     inkscape:current-layer="g18" />
  <g
     inkscape:groupmode="layer"
     inkscape:label="Image"
     id="g18"
     transform="translate(-35.003506,-22.751486)">
    <g
       id="g46"
       transform="translate(-9.0702944,-165.53288)"
       inkscape:export-filename="C:\Users\doaa_\g46.png"
       inkscape:export-xdpi="95.900002"
       inkscape:export-ydpi="95.900002">
      <path
         style="fill:#deb1da"
         d="m 432.75,294.33772 c 0.6875,-0.27741 1.8125,-0.27741 2.5,0 0.6875,0.27741 0.125,0.50439 -1.25,0.50439 -1.375,0 -1.9375,-0.22698 -1.25,-0.50439 z m -274.5,-2.06619 c 2.0625,-0.21574 5.4375,-0.21574 7.5,0 2.0625,0.21575 0.375,0.39226 -3.75,0.39226 -4.125,0 -5.8125,-0.17651 -3.75,-0.39226 z M 448,290.62244 c 0,-0.20765 0.7875,-0.99515 1.75,-1.75 1.58606,-1.24387 1.62143,-1.2085 0.37756,0.37756 C 448.82119,290.91575 448,291.44548 448,290.62244 Z M 44.157895,287 c 0,-1.375 0.226973,-1.9375 0.504386,-1.25 0.277412,0.6875 0.277412,1.8125 0,2.5 -0.277413,0.6875 -0.504386,0.125 -0.504386,-1.25 z M 378.25,282.31067 c 0.9625,-0.25152 2.5375,-0.25152 3.5,0 0.9625,0.25153 0.175,0.45733 -1.75,0.45733 -1.925,0 -2.7125,-0.2058 -1.75,-0.45733 z M 138.25674,280 c 0.22494,-0.825 1.2717,-1.60456 2.32613,-1.73237 1.34704,-0.16326 1.47108,-0.0443 0.41713,0.39995 -0.825,0.34777 -1.87176,1.12733 -2.32613,1.73236 -0.53136,0.70754 -0.6802,0.56484 -0.41713,-0.39994 z m 15.82221,-0.58333 c 0.048,-1.16495 0.28494,-1.4019 0.60416,-0.60417 0.28887,0.72187 0.25335,1.58438 -0.0789,1.91667 -0.3323,0.33229 -0.56864,-0.25834 -0.52522,-1.3125 z m 72.73355,-0.0998 c 0.72187,-0.28887 1.58437,-0.25335 1.91667,0.0789 0.33229,0.33229 -0.25834,0.56864 -1.3125,0.52522 -1.16495,-0.048 -1.4019,-0.28494 -0.60417,-0.60416 z m -19.13763,-1.72179 c -0.88985,-2.31891 -0.86161,-4.11517 0.0504,-3.2032 0.39888,0.39888 1.28553,-0.76362 1.97032,-2.58333 l 1.24509,-3.30857 -0.48106,4 c -0.32061,2.6658 -0.20147,3.35504 0.35717,2.06638 0.51087,-1.17845 1.09659,-1.51561 1.49974,-0.86331 0.36382,0.58867 -0.009,1.6264 -0.8275,2.30607 -0.81894,0.67966 -1.52062,0.84315 -1.55928,0.3633 -0.0386,-0.47984 -0.40996,-0.005 -0.82513,1.05445 -0.70047,1.78807 -0.80346,1.80019 -1.42971,0.16821 z M 333.75,278.2766 c 1.7875,-0.22182 4.7125,-0.22182 6.5,0 1.7875,0.22183 0.325,0.40333 -3.25,0.40333 -3.575,0 -5.0375,-0.1815 -3.25,-0.40333 z M 416.27236,275 c 0,-2.475 0.19502,-3.4875 0.43337,-2.25 0.23836,1.2375 0.23836,3.2625 0,4.5 -0.23835,1.2375 -0.43337,0.225 -0.43337,-2.25 z M 170,275.55902 c 0,-1.34254 0.36858,-2.66878 0.81906,-2.94719 0.45048,-0.27841 0.6244,0.82003 0.3865,2.44098 C 170.68102,278.6267 170,278.91266 170,275.55902 Z M 454.19495,274.5 c 0.0204,-1.65 0.2445,-2.20394 0.49804,-1.23097 0.25354,0.97297 0.23687,2.32297 -0.0371,3 -0.27393,0.67703 -0.48137,-0.11903 -0.46099,-1.76903 z M 45.078947,268.41667 c 0.04798,-1.16495 0.284941,-1.4019 0.604167,-0.60417 0.288871,0.72187 0.253344,1.58438 -0.07895,1.91667 -0.332292,0.33229 -0.568641,-0.25834 -0.52522,-1.3125 z m 16,-2 c 0.04798,-1.16495 0.284941,-1.4019 0.604167,-0.60417 0.288871,0.72187 0.253344,1.58438 -0.07895,1.91667 -0.332292,0.33229 -0.568641,-0.25834 -0.52522,-1.3125 z m 94.000003,-2 c 0.048,-1.16495 0.28494,-1.4019 0.60416,-0.60417 0.28887,0.72187 0.25335,1.58438 -0.0789,1.91667 -0.3323,0.33229 -0.56864,-0.25834 -0.52522,-1.3125 z M 212.232,262 c 0,-1.925 0.2058,-2.7125 0.45733,-1.75 0.25152,0.9625 0.25152,2.5375 0,3.5 -0.25153,0.9625 -0.45733,0.175 -0.45733,-1.75 z m -75.732,1 c -0.33992,-0.55 -0.14148,-1 0.44098,-1 0.58246,0 1.05902,0.45 1.05902,1 0,0.55 -0.19844,1 -0.44098,1 -0.24254,0 -0.7191,-0.45 -1.05902,-1 z m 34.5,-8.05902 c 0,-0.58246 0.45,-0.7809 1,-0.44098 0.55,0.33992 1,0.81648 1,1.05902 0,0.24254 -0.45,0.44098 -1,0.44098 -0.55,0 -1,-0.47656 -1,-1.05902 z M 444.40499,250.75 442.5,248.5 l 2.25,1.90499 c 1.2375,1.04774 2.25,2.06024 2.25,2.25 0,0.80025 -0.80479,0.20945 -2.59501,-1.90499 z M 46.078947,250.41667 c 0.04798,-1.16495 0.284941,-1.4019 0.604167,-0.60417 0.288871,0.72187 0.253344,1.58437 -0.07895,1.91667 -0.332292,0.33229 -0.568641,-0.25834 -0.52522,-1.3125 z m 16,0 c 0.04798,-1.16495 0.284941,-1.4019 0.604167,-0.60417 0.288871,0.72187 0.253344,1.58437 -0.07895,1.91667 -0.332292,0.33229 -0.568641,-0.25834 -0.52522,-1.3125 z m 94.000003,-1 c 0.048,-1.16495 0.28494,-1.4019 0.60416,-0.60417 0.28887,0.72187 0.25335,1.58437 -0.0789,1.91667 -0.3323,0.33229 -0.56864,-0.25834 -0.52522,-1.3125 z M 235.15789,245 c 0,-1.375 0.22698,-1.9375 0.50439,-1.25 0.27741,0.6875 0.27741,1.8125 0,2.5 -0.27741,0.6875 -0.50439,0.125 -0.50439,-1.25 z m -33.07894,-1.58333 c 0.048,-1.16495 0.28494,-1.4019 0.60416,-0.60417 0.28887,0.72187 0.25335,1.58437 -0.0789,1.91667 -0.3323,0.33229 -0.56864,-0.25834 -0.52522,-1.3125 z m 49.116,-0.91667 c 0.0204,-1.65 0.2445,-2.20394 0.49804,-1.23097 0.25354,0.97297 0.23687,2.32297 -0.0371,3 -0.27393,0.67703 -0.48137,-0.11903 -0.46099,-1.76903 z m 127.884,0.91667 c 0.048,-1.16495 0.28494,-1.4019 0.60416,-0.60417 0.28887,0.72187 0.25335,1.58437 -0.0789,1.91667 -0.33229,0.33229 -0.56864,-0.25834 -0.52522,-1.3125 z M 422.232,239 c 0,-1.925 0.2058,-2.7125 0.45733,-1.75 0.25152,0.9625 0.25152,2.5375 0,3.5 -0.25153,0.9625 -0.45733,0.175 -0.45733,-1.75 z m 35.92589,-4 c 0,-1.375 0.22698,-1.9375 0.50439,-1.25 0.27741,0.6875 0.27741,1.8125 0,2.5 -0.27741,0.6875 -0.50439,0.125 -0.50439,-1.25 z M 47.078947,232.41667 c 0.04798,-1.16495 0.284941,-1.4019 0.604167,-0.60417 0.288871,0.72187 0.253344,1.58437 -0.07895,1.91667 -0.332292,0.33229 -0.568641,-0.25834 -0.52522,-1.3125 z M 84.872445,230.25 c -1.243871,-1.58606 -1.208501,-1.62143 0.377555,-0.37756 0.9625,0.75485 1.75,1.54235 1.75,1.75 0,0.82304 -0.821186,0.29331 -2.127555,-1.37244 z m 274.206505,0.16667 c 0.048,-1.16495 0.28494,-1.4019 0.60416,-0.60417 0.28887,0.72187 0.25335,1.58437 -0.0789,1.91667 -0.33229,0.33229 -0.56864,-0.25834 -0.52522,-1.3125 z M 246.87244,229.25 c -1.24387,-1.58606 -1.2085,-1.62143 0.37756,-0.37756 0.9625,0.75485 1.75,1.54235 1.75,1.75 0,0.82304 -0.82119,0.29331 -2.12756,-1.37244 z M 294,228.94098 c 0,-0.58246 0.45,-0.7809 1,-0.44098 0.55,0.33992 1,0.81648 1,1.05902 0,0.24254 -0.45,0.44098 -1,0.44098 -0.55,0 -1,-0.47656 -1,-1.05902 z m -124.1875,-9.62409 c 0.72187,-0.28887 1.58437,-0.25335 1.91667,0.0789 0.33229,0.33229 -0.25834,0.56864 -1.3125,0.52522 -1.16495,-0.048 -1.4019,-0.28494 -0.60417,-0.60416 z m 164.4375,-0.006 c 0.9625,-0.25152 2.5375,-0.25152 3.5,0 0.9625,0.25153 0.175,0.45733 -1.75,0.45733 -1.925,0 -2.7125,-0.2058 -1.75,-0.45733 z"
         id="path68" />
      <path
         style="fill:#eb8db7"
         d="m 206.07895,276.41667 c 0.048,-1.16495 0.28494,-1.4019 0.60416,-0.60417 0.28887,0.72187 0.25335,1.58438 -0.0789,1.91667 -0.3323,0.33229 -0.56864,-0.25834 -0.52522,-1.3125 z M 439.232,273 c 0,-1.925 0.2058,-2.7125 0.45733,-1.75 0.25152,0.9625 0.25152,2.5375 0,3.5 -0.25153,0.9625 -0.45733,0.175 -0.45733,-1.75 z m -231.99837,0.83363 c -1.67972,-1.67972 -1.56211,-3.89691 0.17142,-3.23169 0.96255,0.36936 1.63699,-0.5066 2.14153,-2.78139 0.64044,-2.8875 0.83928,-3.05972 1.52467,-1.32055 0.4335,1.1 0.75853,3.125 0.72228,4.5 l -0.0659,2.5 -0.49405,-2.5 c -0.48057,-2.43184 -0.52502,-2.41047 -1.63019,0.78363 -0.90087,2.60367 -1.39159,3.02818 -2.36977,2.05 z m 4.84532,-16.41696 c 0.048,-1.16495 0.28494,-1.4019 0.60416,-0.60417 0.28887,0.72187 0.25335,1.58438 -0.0789,1.91667 -0.3323,0.33229 -0.56864,-0.25834 -0.52522,-1.3125 z m 184,-1 c 0.048,-1.16495 0.28494,-1.4019 0.60416,-0.60417 0.28887,0.72187 0.25335,1.58438 -0.0789,1.91667 -0.33229,0.33229 -0.56864,-0.25834 -0.52522,-1.3125 z M 426.87244,251.25 c -1.24387,-1.58606 -1.2085,-1.62143 0.37756,-0.37756 0.9625,0.75485 1.75,1.54235 1.75,1.75 0,0.82304 -0.82119,0.29331 -2.12756,-1.37244 z M 213.07895,226.41667 c 0.048,-1.16495 0.28494,-1.4019 0.60416,-0.60417 0.28887,0.72187 0.25335,1.58437 -0.0789,1.91667 -0.3323,0.33229 -0.56864,-0.25834 -0.52522,-1.3125 z m 148.81797,-6.71824 c 0.44342,-0.44086 3.68551,-0.6608 7.20465,-0.48874 l 6.39843,0.31283 -7.20465,0.48874 c -3.96256,0.26881 -6.84185,0.12803 -6.39843,-0.31283 z m -34.13526,-0.40569 c 1.24391,-0.23919 3.04391,-0.23011 4,0.0202 0.95609,0.25029 -0.0617,0.446 -2.26166,0.4349 -2.2,-0.0111 -2.98225,-0.21589 -1.73834,-0.45508 z M 406.75,219.2766 c 1.7875,-0.22182 4.7125,-0.22182 6.5,0 1.7875,0.22183 0.325,0.40333 -3.25,0.40333 -3.575,0 -5.0375,-0.1815 -3.25,-0.40333 z m 33.01166,-0.98386 c 1.24391,-0.23919 3.04391,-0.23011 4,0.0202 0.95609,0.25029 -0.0617,0.446 -2.26166,0.4349 -2.2,-0.0111 -2.98225,-0.21589 -1.73834,-0.45508 z"
         id="path66" />
      <path
         style="fill:#b194e3"
         d="m 98.75,292.29427 c 1.2375,-0.23836 3.2625,-0.23836 4.5,0 1.2375,0.23835 0.225,0.43337 -2.25,0.43337 -2.475,0 -3.4875,-0.19502 -2.25,-0.43337 z m -54.671053,-1.8776 c 0.04798,-1.16495 0.284941,-1.4019 0.604167,-0.60417 0.288871,0.72187 0.253344,1.58438 -0.07895,1.91667 -0.332292,0.33229 -0.568641,-0.25834 -0.52522,-1.3125 z m 224.000003,0 c 0.048,-1.16495 0.28494,-1.4019 0.60416,-0.60417 0.28887,0.72187 0.25335,1.58438 -0.0789,1.91667 -0.33229,0.33229 -0.56864,-0.25834 -0.52522,-1.3125 z m -137,-1 c 0.048,-1.16495 0.28494,-1.4019 0.60416,-0.60417 0.28887,0.72187 0.25335,1.58438 -0.0789,1.91667 -0.3323,0.33229 -0.56864,-0.25834 -0.52522,-1.3125 z M 285.232,288 c 0,-1.925 0.2058,-2.7125 0.45733,-1.75 0.25152,0.9625 0.25152,2.5375 0,3.5 -0.25153,0.9625 -0.45733,0.175 -0.45733,-1.75 z M 78.5,285 c 0.995486,-1.1 2.034975,-2 2.309975,-2 0.275,0 -0.314489,0.9 -1.309975,2 -0.995486,1.1 -2.034975,2 -2.309975,2 -0.275,0 0.314489,-0.9 1.309975,-2 z m 75.57895,-2.58333 c 0.048,-1.16495 0.28494,-1.4019 0.60416,-0.60417 0.28887,0.72187 0.25335,1.58438 -0.0789,1.91667 -0.3323,0.33229 -0.56864,-0.25834 -0.52522,-1.3125 z m -46.51466,-0.7098 c 0.37553,-0.98622 0.93469,-1.54122 1.24258,-1.23333 0.30789,0.30789 6.4e-4,1.11479 -0.68278,1.79313 -0.98762,0.98026 -1.10248,0.8654 -0.5598,-0.5598 z m 133.76904,-3.0402 c 0,-0.73334 0.5571,-1.33334 1.238,-1.33334 0.68089,0 1.00775,0.6 0.72634,1.33334 C 243.01626,279.4 242.45917,280 242.05968,280 c -0.39949,0 -0.72635,-0.6 -0.72635,-1.33333 z m -9.25438,-3.25 c 0.048,-1.16495 0.28494,-1.4019 0.60416,-0.60417 0.28887,0.72187 0.25335,1.58438 -0.0789,1.91667 -0.3323,0.33229 -0.56864,-0.25834 -0.52522,-1.3125 z M 45.157895,272 c 0,-1.375 0.226973,-1.9375 0.504386,-1.25 0.277412,0.6875 0.277412,1.8125 0,2.5 -0.277413,0.6875 -0.504386,0.125 -0.504386,-1.25 z m 184.714545,-1.75 c -1.24387,-1.58606 -1.2085,-1.62143 0.37756,-0.37756 1.66575,1.30637 2.19548,2.12756 1.37244,2.12756 -0.20765,0 -0.99515,-0.7875 -1.75,-1.75 z m -74.79349,-2.83333 c 0.048,-1.16495 0.28494,-1.4019 0.60416,-0.60417 0.28887,0.72187 0.25335,1.58438 -0.0789,1.91667 -0.3323,0.33229 -0.56864,-0.25834 -0.52522,-1.3125 z m -94.000003,-4 c 0.04798,-1.16495 0.284941,-1.4019 0.604167,-0.60417 0.288871,0.72187 0.253344,1.58438 -0.07895,1.91667 -0.332292,0.33229 -0.568641,-0.25834 -0.52522,-1.3125 z M 133,263.05902 c 0,-0.51754 0.44485,-1.21592 0.98855,-1.55194 0.56686,-0.35034 0.7345,0.0511 0.39301,0.94098 C 133.71677,264.18048 133,264.49745 133,263.05902 Z M 46.157895,254 c 0,-1.375 0.226973,-1.9375 0.504386,-1.25 0.277412,0.6875 0.277412,1.8125 0,2.5 -0.277413,0.6875 -0.504386,0.125 -0.504386,-1.25 z m 109.921055,-1.58333 c 0.048,-1.16495 0.28494,-1.4019 0.60416,-0.60417 0.28887,0.72187 0.25335,1.58437 -0.0789,1.91667 -0.3323,0.33229 -0.56864,-0.25834 -0.52522,-1.3125 z M 49.194949,247.5 c 0.02038,-1.65 0.244498,-2.20394 0.498042,-1.23097 0.253543,0.97297 0.236869,2.32297 -0.03705,3 C 49.382014,249.94606 49.174569,249.15 49.194949,247.5 Z m 185.884001,-6.08333 c 0.048,-1.16495 0.28494,-1.4019 0.60416,-0.60417 0.28887,0.72187 0.25335,1.58437 -0.0789,1.91667 -0.3323,0.33229 -0.56864,-0.25834 -0.52522,-1.3125 z M 157.15789,237 c 0,-1.375 0.22698,-1.9375 0.50439,-1.25 0.27741,0.6875 0.27741,1.8125 0,2.5 -0.27741,0.6875 -0.50439,0.125 -0.50439,-1.25 z M 47.157895,236 c 0,-1.375 0.226973,-1.9375 0.504386,-1.25 0.277412,0.6875 0.277412,1.8125 0,2.5 -0.277413,0.6875 -0.504386,0.125 -0.504386,-1.25 z M 235.8125,225.31689 c 0.72187,-0.28887 1.58437,-0.25335 1.91667,0.0789 0.33229,0.33229 -0.25834,0.56864 -1.3125,0.52522 -1.16495,-0.048 -1.4019,-0.28494 -0.60417,-0.60416 z M 192.75,222.33772 c 0.6875,-0.27741 1.8125,-0.27741 2.5,0 0.6875,0.27741 0.125,0.50439 -1.25,0.50439 -1.375,0 -1.9375,-0.22698 -1.25,-0.50439 z"
         id="path64" />
      <path
         style="fill:#e25d98"
         d="m 430.07895,273.41667 c 0.048,-1.16495 0.28494,-1.4019 0.60416,-0.60417 0.28887,0.72187 0.25335,1.58438 -0.0789,1.91667 -0.33229,0.33229 -0.56864,-0.25834 -0.52522,-1.3125 z m -223.58448,-3.42562 c -0.34296,-0.55492 -0.30293,-2.01742 0.0889,-3.25 0.69056,-2.172 0.7366,-2.17943 1.49426,-0.24105 0.42996,1.1 0.81338,2.5625 0.85203,3.25 0.0842,1.49825 -1.5578,1.66079 -2.43524,0.24105 z M 211.232,265 c 0,-1.925 0.2058,-2.7125 0.45733,-1.75 0.25152,0.9625 0.25152,2.5375 0,3.5 -0.25153,0.9625 -0.45733,0.175 -0.45733,-1.75 z m 155.84695,1.41667 c 0.048,-1.16495 0.28494,-1.4019 0.60416,-0.60417 0.28887,0.72187 0.25335,1.58438 -0.0789,1.91667 -0.33229,0.33229 -0.56864,-0.25834 -0.52522,-1.3125 z m 55.1848,-0.13425 c 1.52006,-0.22986 3.77006,-0.22371 5,0.0136 1.22994,0.23736 -0.0138,0.42542 -2.76375,0.41792 -2.75,-0.008 -3.75631,-0.20172 -2.23625,-0.43157 z m -12.1848,-9.86575 c 0.048,-1.16495 0.28494,-1.4019 0.60416,-0.60417 0.28887,0.72187 0.25335,1.58438 -0.0789,1.91667 -0.33229,0.33229 -0.56864,-0.25834 -0.52522,-1.3125 z m -200,-21 c 0.048,-1.16495 0.28494,-1.4019 0.60416,-0.60417 0.28887,0.72187 0.25335,1.58437 -0.0789,1.91667 -0.3323,0.33229 -0.56864,-0.25834 -0.52522,-1.3125 z m 129,-14 c 0.048,-1.16495 0.28494,-1.4019 0.60416,-0.60417 0.28887,0.72187 0.25335,1.58437 -0.0789,1.91667 -0.33229,0.33229 -0.56864,-0.25834 -0.52522,-1.3125 z"
         id="path62" />
      <path
         style="fill:#9066d8"
         d="m 105.5,292.49353 c 2.28577,-0.79677 8.32228,-1.015 7.87084,-0.28454 -0.26888,0.43506 -2.37482,0.75548 -4.67986,0.71206 -2.30504,-0.0434 -3.74098,-0.2358 -3.19098,-0.42752 z m 48.57895,-7.07686 c 0.048,-1.16495 0.28494,-1.4019 0.60416,-0.60417 0.28887,0.72187 0.25335,1.58438 -0.0789,1.91667 -0.3323,0.33229 -0.56864,-0.25834 -0.52522,-1.3125 z m 129.93636,-1.10765 C 284.02373,283.31406 284.46684,281.825 285,281 c 0.7582,-1.17323 0.97271,-0.91378 0.98469,1.19098 0.008,1.48004 -0.43469,2.9691 -0.98469,3.30902 -0.55,0.33992 -0.99311,-0.19602 -0.98469,-1.19098 z M 282.27236,274 c 0,-2.475 0.19502,-3.4875 0.43337,-2.25 0.23836,1.2375 0.23836,3.2625 0,4.5 -0.23835,1.2375 -0.43337,0.225 -0.43337,-2.25 z m -237.193413,1.41667 c 0.04798,-1.16495 0.284941,-1.4019 0.604167,-0.60417 0.288871,0.72187 0.253344,1.58438 -0.07895,1.91667 -0.332292,0.33229 -0.568641,-0.25834 -0.52522,-1.3125 z m 16,-15 c 0.04798,-1.16495 0.284941,-1.4019 0.604167,-0.60417 0.288871,0.72187 0.253344,1.58438 -0.07895,1.91667 -0.332292,0.33229 -0.568641,-0.25834 -0.52522,-1.3125 z m 215.428133,-1.40522 c -0.35034,-0.56686 0.0511,-0.7345 0.94098,-0.39301 1.73242,0.66479 2.04939,1.38156 0.61096,1.38156 -0.51754,0 -1.21592,-0.44485 -1.55194,-0.98855 z M 46.078947,257.41667 c 0.04798,-1.16495 0.284941,-1.4019 0.604167,-0.60417 0.288871,0.72187 0.253344,1.58438 -0.07895,1.91667 -0.332292,0.33229 -0.568641,-0.25834 -0.52522,-1.3125 z m 1,-18 c 0.04798,-1.16495 0.284941,-1.4019 0.604167,-0.60417 0.288871,0.72187 0.253344,1.58437 -0.07895,1.91667 -0.332292,0.33229 -0.568641,-0.25834 -0.52522,-1.3125 z M 73,229 c 0,-0.55 0.476558,-1 1.059017,-1 0.582459,0 0.780902,0.45 0.440983,1 -0.339919,0.55 -0.816476,1 -1.059017,1 C 73.198442,230 73,229.55 73,229 Z m 54.26903,-3.69299 c 0.97297,-0.25354 2.32297,-0.23687 3,0.0371 0.67703,0.27393 -0.11903,0.48137 -1.76903,0.46099 -1.65,-0.0204 -2.20394,-0.2445 -1.23097,-0.49804 z"
         id="path60" />
      <path
         style="fill:#dd3982"
         d="m 430.15789,270 c 0,-1.375 0.22698,-1.9375 0.50439,-1.25 0.27741,0.6875 0.27741,1.8125 0,2.5 -0.27741,0.6875 -0.50439,0.125 -0.50439,-1.25 z M 317.99938,258.25 c -3.4e-4,-0.4125 2.36216,-0.62143 5.25,-0.46428 9.4548,0.5145 10.3885,0.91195 2.50062,1.06445 -4.2625,0.0824 -7.75028,-0.18767 -7.75062,-0.60017 z M 356.5,258.40258 c 4.60282,-0.74809 12.27742,-0.84693 11.84694,-0.15258 -0.25573,0.4125 -3.47592,0.68872 -7.15596,0.61382 -3.68004,-0.0749 -5.79098,-0.28246 -4.69098,-0.46124 z m 16.75,-0.11883 c 1.5125,-0.22913 3.9875,-0.22913 5.5,0 1.5125,0.22912 0.275,0.41659 -2.75,0.41659 -3.025,0 -4.2625,-0.18747 -2.75,-0.41659 z m 12.51791,-0.008 c 1.79735,-0.22256 4.49735,-0.21797 6,0.0102 1.50265,0.22818 0.0321,0.41027 -3.26791,0.40466 -3.3,-0.006 -4.52944,-0.1923 -2.73209,-0.41486 z m 13.95979,0.003 c 1.77523,-0.22091 4.92523,-0.22454 7,-0.008 2.07476,0.21648 0.6223,0.39722 -3.2277,0.40166 -3.85,0.004 -5.54754,-0.17268 -3.7723,-0.39359 z M 436,258.38276 c 5.88419,-0.74747 14.00262,-0.82445 14.00136,-0.13276 -7.5e-4,0.4125 -3.71386,0.68258 -8.25136,0.60017 -4.5375,-0.0824 -7.125,-0.29274 -5.75,-0.46741 z m 13.26375,-16.10034 c 1.52006,-0.22986 3.77006,-0.22371 5,0.0136 1.22994,0.23736 -0.0138,0.42542 -2.76375,0.41792 -2.75,-0.008 -3.75631,-0.20172 -2.23625,-0.43157 z m -13.1848,-4.86575 c 0.048,-1.16495 0.28494,-1.4019 0.60416,-0.60417 0.28887,0.72187 0.25335,1.58437 -0.0789,1.91667 -0.33229,0.33229 -0.56864,-0.25834 -0.52522,-1.3125 z M 211,223.94098 c 0,-0.58246 0.45,-0.7809 1,-0.44098 0.55,0.33992 1,0.81648 1,1.05902 0,0.24254 -0.45,0.44098 -1,0.44098 -0.55,0 -1,-0.47656 -1,-1.05902 z m -3,-2 c 0,-0.58246 0.45,-0.7809 1,-0.44098 0.55,0.33992 1,0.81648 1,1.05902 0,0.24254 -0.45,0.44098 -1,0.44098 -0.55,0 -1,-0.47656 -1,-1.05902 z M 205,220 c 0,-0.55 -0.62686,-1 -1.39301,-1 -0.76616,0 -1.6629,-0.70333 -1.99277,-1.56295 -0.4514,-1.17631 0.14057,-1.03578 2.39301,0.5681 C 207.15364,220.24559 207.65562,221 206,221 c -0.55,0 -1,-0.45 -1,-1 z m -6.5,-4 c -0.33992,-0.55 -0.14148,-1 0.44098,-1 0.58246,0 1.05902,0.45 1.05902,1 0,0.55 -0.19844,1 -0.44098,1 -0.24254,0 -0.7191,-0.45 -1.05902,-1 z m -8.6875,-6.68311 c 0.72187,-0.28887 1.58437,-0.25335 1.91667,0.0789 0.33229,0.33229 -0.25834,0.56864 -1.3125,0.52522 -1.16495,-0.048 -1.4019,-0.28494 -0.60417,-0.60416 z M 185,207 c -1.29269,-0.8354 -1.26629,-0.97149 0.19098,-0.98469 0.93004,-0.008 1.9691,0.43469 2.30902,0.98469 0.78218,1.2656 -0.54163,1.2656 -2.5,0 z"
         id="path58" />
      <path
         style="fill:#7948d0"
         d="m 278.26903,292.30701 c 0.97297,-0.25354 2.32297,-0.23687 3,0.0371 0.67703,0.27393 -0.11903,0.48137 -1.76903,0.46099 -1.65,-0.0204 -2.20394,-0.2445 -1.23097,-0.49804 z M 284.2,278.65 c 0,-2.00443 0.405,-3.39412 0.9,-3.0882 1.14317,0.70652 1.1351,3.51853 -0.0153,5.33541 -0.60668,0.95814 -0.8847,0.25194 -0.8847,-2.24721 z m -2.12105,0.76667 c 0.048,-1.16495 0.28494,-1.4019 0.60416,-0.60417 0.28887,0.72187 0.25335,1.58438 -0.0789,1.91667 -0.33229,0.33229 -0.56864,-0.25834 -0.52522,-1.3125 z m -237.000003,-1 c 0.04798,-1.16495 0.284941,-1.4019 0.604167,-0.60417 0.288871,0.72187 0.253344,1.58438 -0.07895,1.91667 -0.332292,0.33229 -0.568641,-0.25834 -0.52522,-1.3125 z M 250.15789,274 c 0,-1.375 0.22698,-1.9375 0.50439,-1.25 0.27741,0.6875 0.27741,1.8125 0,2.5 -0.27741,0.6875 -0.50439,0.125 -0.50439,-1.25 z m -64.34539,-9.68311 c 0.72187,-0.28887 1.58437,-0.25335 1.91667,0.0789 0.33229,0.33229 -0.25834,0.56864 -1.3125,0.52522 -1.16495,-0.048 -1.4019,-0.28494 -0.60417,-0.60416 z M 78.657916,257.44907 C 79.264884,255.86734 81,255.45539 81,256.89301 c 0,0.49116 -0.652083,1.14324 -1.449072,1.44907 -0.968522,0.37166 -1.264668,0.0755 -0.893012,-0.89301 z M 76.5,253 c 0.339919,-0.55 0.816476,-1 1.059017,-1 C 77.801558,252 78,252.45 78,253 c 0,0.55 -0.476558,1 -1.059017,1 -0.582459,0 -0.780902,-0.45 -0.440983,-1 z m 122.57895,-3.58333 c 0.048,-1.16495 0.28494,-1.4019 0.60416,-0.60417 0.28887,0.72187 0.25335,1.58437 -0.0789,1.91667 -0.3323,0.33229 -0.56864,-0.25834 -0.52522,-1.3125 z m -9.26645,-7.09978 c 0.72187,-0.28887 1.58437,-0.25335 1.91667,0.0789 0.33229,0.33229 -0.25834,0.56864 -1.3125,0.52522 -1.16495,-0.048 -1.4019,-0.28494 -0.60417,-0.60416 z"
         id="path56" />
      <path
         style="fill:#d92676"
         d="m 427.33291,292.96254 c -6.10446,-1.88266 -10.31509,-9.47873 -10.32733,-18.63075 C 416.99658,267.49903 417.47979,267 424.10699,267 H 430 v 4.4349 c 0,6.86949 1.39219,9.5651 4.94007,9.5651 1.93224,0 3.35568,-0.68409 4.02475,-1.93426 1.67918,-3.13759 1.19636,-10.29464 -0.96676,-14.33055 L 435.99611,261 h 7.46676 c 9.33311,0 9.99679,0.86876 9.96857,13.04895 -0.0226,9.72884 -1.87861,14.02952 -7.4772,17.32542 -3.69604,2.17587 -13.89523,3.04573 -18.62133,1.58817 z m -114.609,-0.64764 c -0.38052,-0.65371 1.86628,-14.07928 4.86409,-29.0649 0.41598,-2.07942 0.98757,-2.25 7.53946,-2.25 6.8511,0 7.07055,0.0756 6.52965,2.25 -0.30784,1.2375 -0.86876,5.2875 -1.2465,9 l -0.6868,6.75 h 6.75164 6.75164 l -0.67051,4.75 c -1.08994,7.72141 -1.27287,7.98942 -5.8395,8.55592 -7.02934,0.87201 -23.48722,0.87817 -23.99317,0.009 z m 38.4815,-0.16679 c -1.0458,-0.66343 -0.89259,-3.30286 0.79725,-13.73468 1.15051,-7.10239 2.30415,-13.92593 2.56364,-15.16343 0.43156,-2.05808 1.03411,-2.25 7.06404,-2.25 h 6.59224 l -0.56694,3.25 c -0.31183,1.7875 -1.32405,8.65 -2.24938,15.25 -0.92534,6.6 -2.1828,12.33061 -2.79435,12.73469 -1.50784,0.99629 -9.79872,0.93337 -11.4065,-0.0866 z M 390.99922,290.75 c -6.9e-4,-2.0124 0.65676,-5.88852 4.15561,-24.5 L 396.1418,261 h 6.75447 6.75448 l -2.31897,13.75 c -3.14689,18.65903 -2.91581,18.25 -10.31034,18.25 -5.57756,0 -6.0215,-0.16586 -6.02222,-2.25 z m -16.34421,-9.5 c -0.71146,-1.1524 -3.75687,-19.48147 -3.31097,-19.92737 0.21612,-0.21613 5.12499,-0.26464 10.90859,-0.1078 l 10.51564,0.28517 -4.88508,10.25 -4.88508,10.25 h -3.94004 c -2.16702,0 -4.1484,-0.3375 -4.40306,-0.75 z M 207.6093,264.57946 c -0.33413,-1.33129 -0.40473,-3.01879 -0.15688,-3.75 0.24785,-0.7312 1.14367,-6.85412 1.99071,-13.60648 1.12969,-9.00551 1.24932,-12.74258 0.44896,-14.02417 -0.84941,-1.36011 -0.60414,-2.57253 1.10717,-5.47298 2.27918,-3.86292 3.38124,-4.88097 2.33648,-2.15837 -0.33082,0.8621 -0.0239,2.64676 0.68212,3.96591 0.88295,1.6498 0.96696,2.79927 0.26914,3.68254 -0.55796,0.70625 -1.30069,7.20951 -1.6505,14.45168 -0.6456,13.36596 -1.20622,16.71637 -2.64803,15.82529 -0.44107,-0.2726 -0.56643,0.40498 -0.27858,1.50574 0.28786,1.10076 0.0697,2.00138 -0.48485,2.00138 -0.55452,0 -1.28161,-1.08924 -1.61574,-2.42054 z M 319.41383,254.25 c 0.37154,-2.0625 1.28935,-7.575 2.03959,-12.25 0.75023,-4.675 1.93291,-11.5375 2.62817,-15.25 L 325.3457,220 h 6.82715 c 8.15505,0 7.87435,-1.03859 4.42556,16.37436 -1.32087,6.6691 -2.69845,14.26314 -3.06127,16.87564 l -0.65969,4.75 h -7.06957 -7.06956 z m 36.72942,-0.95707 c 0.49559,-2.63611 1.8036,-10.19293 2.9067,-16.79293 3.10294,-18.56542 1.95111,-16.63651 9.7304,-16.295 l 6.71965,0.295 2.18081,15 c 1.19944,8.25 2.44226,16.6875 2.76181,18.75 l 0.58102,3.75 h -4.99277 c -4.60856,0 -5.04718,-0.21162 -5.69991,-2.75 l -0.70714,-2.75 -0.60356,2.5 c -0.55816,2.31196 -1.09903,2.52203 -7.19083,2.79293 l -6.58726,0.29293 z M 390.53956,245.25 c 3.69144,-7.0125 8.26889,-15.5625 10.17213,-19 l 3.46044,-6.25 h 6.38894 6.38893 l -0.46613,2.75 c -0.25637,1.5125 -1.82012,9.88155 -3.475,18.5979 -1.65488,8.71634 -3.00887,16.02884 -3.00887,16.25 0,0.22115 -2.925,0.4021 -6.5,0.4021 -6.05402,0 -6.50464,-0.15438 -6.56768,-2.25 l -0.0677,-2.25 -1.08513,2.25 c -0.92797,1.92411 -1.8721,2.25 -6.51839,2.25 h -5.43325 l 6.71169,-12.75 z m 38.72502,7.64675 c -5.65015,-6.76002 -6.9947,-11.37949 -5.45485,-18.74128 1.94188,-9.28385 6.83056,-14.12623 15.0596,-14.91694 7.30306,-0.70173 11.54637,0.40656 14.97213,3.91051 3.40726,3.48503 4.69539,8.71389 3.65854,14.85096 l -0.6758,4 h -5.85984 -5.85984 l -0.30226,-5.14701 c -0.48451,-8.25045 -6.07574,-9.59564 -8.05976,-1.93908 -1.07496,4.1484 1.48658,9.62365 7.75651,16.57944 2.47554,2.74634 4.50099,5.33384 4.50099,5.75 0,0.41616 -3.4875,0.74858 -7.75,0.73872 l -7.75,-0.0179 -4.23542,-5.06739 z M 209.5,223 c 0.33992,-0.55 0.81648,-1 1.05902,-1 0.24254,0 0.44098,0.45 0.44098,1 0,0.55 -0.47656,1 -1.05902,1 -0.58246,0 -0.7809,-0.45 -0.44098,-1 z m -3,-2 c 0.33992,-0.55 0.81648,-1 1.05902,-1 0.24254,0 0.44098,0.45 0.44098,1 0,0.55 -0.47656,1 -1.05902,1 -0.58246,0 -0.7809,-0.45 -0.44098,-1 z m -13,-9 c 0.33992,-0.55 0.81648,-1 1.05902,-1 0.24254,0 0.44098,0.45 0.44098,1 0,0.55 -0.47656,1 -1.05902,1 -0.58246,0 -0.7809,-0.45 -0.44098,-1 z m -11.28774,-5.76258 C 181.54552,206.01517 181,205.4536 181,204.98949 c 0,-0.80411 5.82914,-0.49368 6.67847,0.35565 0.60134,0.60134 -4.05756,1.36183 -5.46621,0.89228 z"
         id="path54" />
      <path
         style="fill:#682fca"
         d="m 227.8125,292.31689 c 0.72187,-0.28887 1.58437,-0.25335 1.91667,0.0789 0.33229,0.33229 -0.25834,0.56864 -1.3125,0.52522 -1.16495,-0.048 -1.4019,-0.28494 -0.60417,-0.60416 z m 45.9375,0.0208 c 0.6875,-0.27741 1.8125,-0.27741 2.5,0 0.6875,0.27741 0.125,0.50439 -1.25,0.50439 -1.375,0 -1.9375,-0.22698 -1.25,-0.50439 z m -119.67105,-2.92105 c 0.048,-1.16495 0.28494,-1.4019 0.60416,-0.60417 0.28887,0.72187 0.25335,1.58438 -0.0789,1.91667 -0.3323,0.33229 -0.56864,-0.25834 -0.52522,-1.3125 z M 237.5,286 c 0.33992,-0.55 0.81648,-1 1.05902,-1 0.24254,0 0.44098,0.45 0.44098,1 0,0.55 -0.47656,1 -1.05902,1 -0.58246,0 -0.7809,-0.45 -0.44098,-1 z m -129.89699,-0.83333 c -0.28327,-0.45834 0.12038,-0.83334 0.89699,-0.83334 0.77661,0 1.18026,0.375 0.89699,0.83334 C 109.11373,285.625 108.71008,286 108.5,286 c -0.21008,0 -0.61373,-0.375 -0.89699,-0.83333 z m 29.47594,-3.75 c 0.048,-1.16495 0.28494,-1.4019 0.60416,-0.60417 0.28887,0.72187 0.25335,1.58438 -0.0789,1.91667 -0.3323,0.33229 -0.56864,-0.25834 -0.52522,-1.3125 z m 147.46376,-6.34757 c -0.31644,-0.512 -0.11799,-1.21356 0.44098,-1.55902 0.55897,-0.34546 1.01631,0.0734 1.01631,0.9309 0,1.75653 -0.60006,2.01516 -1.45729,0.62812 z m -43.08383,-1.13563 c -0.36253,-0.58659 -0.44468,-1.281 -0.18255,-1.54313 0.26212,-0.26213 0.74306,0.21781 1.06875,1.06653 0.67618,1.76211 0.0999,2.07206 -0.8862,0.4766 z M 82.5,273 c 0.339919,-0.55 0.816476,-1 1.059017,-1 C 83.801558,272 84,272.45 84,273 c 0,0.55 -0.476558,1 -1.059017,1 -0.582459,0 -0.780902,-0.45 -0.440983,-1 z m 53.06429,-5.29313 c 0.37553,-0.98622 0.93469,-1.54122 1.24258,-1.23333 0.30789,0.30789 6.4e-4,1.11479 -0.68278,1.79313 -0.98762,0.98026 -1.10248,0.8654 -0.5598,-0.5598 z M 134,263.10699 c 0,-0.49116 0.73865,-1.17646 1.64144,-1.52289 1.37248,-0.52667 1.43434,-0.38034 0.37756,0.89301 -1.44013,1.73524 -2.019,1.91584 -2.019,0.62988 z M 233,261 c 0,-0.55 0.45,-1 1,-1 0.55,0 1,0.45 1,1 0,0.55 -0.45,1 -1,1 -0.55,0 -1,-0.45 -1,-1 z M 82,260.10765 c 0,-0.67413 -0.418906,-0.96679 -0.930902,-0.65036 -0.511996,0.31644 -1.213553,0.11799 -1.559017,-0.44098 C 79.164618,258.45734 79.556966,258 80.381966,258 c 1.677481,0 3.144154,1.80721 2.21817,2.7332 C 82.270061,261.06327 82,260.78178 82,260.10765 Z m 101.14324,-2.21734 c 1.766,-1.11899 3.85676,-1.12729 3.85676,-0.0153 0,0.48125 -1.17304,0.875 -2.60676,0.875 -1.83967,0 -2.20751,-0.25298 -1.25,-0.85969 z m -1.49478,-2.36403 c -0.30861,-0.80423 -0.0612,-1.77117 0.54972,-2.14876 0.64099,-0.39615 0.83136,-0.23434 0.4501,0.38256 -0.36341,0.58801 -0.1176,1.25015 0.54624,1.47143 0.84799,0.28266 0.88101,0.60378 0.11101,1.07966 -0.60278,0.37254 -1.34846,0.0193 -1.65707,-0.78489 z M 81,255 c 0,-0.55 0.45,-1 1,-1 0.55,0 1,0.45 1,1 0,0.55 -0.45,1 -1,1 -0.55,0 -1,-0.45 -1,-1 z m 52.8125,-0.68311 c 0.72187,-0.28887 1.58437,-0.25335 1.91667,0.0789 0.33229,0.33229 -0.25834,0.56864 -1.3125,0.52522 -1.16495,-0.048 -1.4019,-0.28494 -0.60417,-0.60416 z m 78.26645,-0.90022 c 0.048,-1.16495 0.28494,-1.4019 0.60416,-0.60417 0.28887,0.72187 0.25335,1.58437 -0.0789,1.91667 -0.3323,0.33229 -0.56864,-0.25834 -0.52522,-1.3125 z m -26.66436,-1.55487 c -0.43129,-0.69784 -0.29172,-0.9039 0.34549,-0.51008 0.58801,0.36341 1.29701,0.0954 1.57556,-0.59549 0.3625,-0.89914 0.52891,-0.91769 0.58541,-0.0652 0.11408,1.72088 -1.6556,2.54754 -2.50646,1.17082 z m 6.39791,-12.54491 c 0.72187,-0.28887 1.58437,-0.25335 1.91667,0.0789 0.33229,0.33229 -0.25834,0.56864 -1.3125,0.52522 -1.16495,-0.048 -1.4019,-0.28494 -0.60417,-0.60416 z m -6,-3 c 0.72187,-0.28887 1.58437,-0.25335 1.91667,0.0789 0.33229,0.33229 -0.25834,0.56864 -1.3125,0.52522 -1.16495,-0.048 -1.4019,-0.28494 -0.60417,-0.60416 z"
         id="path52" />
      <path
         style="fill:#5515c4"
         d="m 45.595118,292.1539 c -0.862972,-1.39631 2.383825,-61.3627 3.381741,-62.45872 1.390707,-1.52743 13.543509,-3.90878 20.551029,-4.027 5.973006,-0.10076 7.725537,0.29029 11.6758,2.6053 14.166606,8.30219 13.793356,37.51895 -0.695558,54.44599 -5.461025,6.37998 -12.044913,9.07633 -24.116779,9.87673 -7.008806,0.46471 -10.319499,0.32908 -10.796233,-0.4423 z M 51,284.94098 C 51,284.42344 50.339123,284 49.531385,284 c -0.892084,0 -1.243517,0.5866 -0.895215,1.49426 C 49.226456,287.03252 51,286.61741 51,284.94098 Z m 1.729167,-2.54515 c -0.332292,-0.33229 -1.194792,-0.36781 -1.916667,-0.0789 -0.797733,0.31922 -0.560776,0.55618 0.604167,0.60416 1.054166,0.0434 1.644791,-0.19293 1.3125,-0.52522 z m 16.108594,-9.66122 c 2.823128,-2.59196 5.705829,-8.61383 6.694505,-13.98461 0.521371,-2.83224 1.172943,-3.75 2.662358,-3.75 1.146147,0 1.787367,-0.5235 1.531081,-1.25 -0.24253,-0.6875 -1.18003,-1.1875 -2.083334,-1.11111 C 76.739067,252.71528 76,252.37778 76,251.88889 76,251.4 76.45,251 77,251 c 0.55,0 1,-0.47656 1,-1.05902 0,-0.58246 -0.395211,-0.81476 -0.878246,-0.51623 -0.483036,0.29853 -1.160708,-0.86952 -1.505939,-2.59567 -0.34523,-1.72616 -1.13012,-3.74385 -1.744198,-4.48377 -1.218645,-1.46838 -8.589899,-1.81062 -10.663499,-0.4951 -0.900509,0.5713 -1.442249,4.71511 -1.788229,13.67829 -0.27299,7.07228 -0.889247,13.33408 -1.369459,13.9151 -0.480212,0.58102 -0.627125,2.33797 -0.326472,3.90434 0.49386,2.57296 0.84274,2.78872 3.613267,2.23461 1.686644,-0.33732 4.161885,-1.6189 5.500536,-2.84794 z M 84,273 c 0,-0.55 -0.198442,-1 -0.440983,-1 -0.242541,0 -0.719098,0.45 -1.059017,1 -0.339919,0.55 -0.141476,1 0.440983,1 C 83.523442,274 84,273.55 84,273 Z m -1,-3 c 0,-0.55 -0.675,-1 -1.5,-1 -0.825,0 -1.5,0.45 -1.5,1 0,0.55 0.675,1 1.5,1 0.825,0 1.5,-0.45 1.5,-1 z m -2.407873,-3.62052 c -0.478195,-1.24615 -0.156389,-1.49879 1.393011,-1.09362 1.475685,0.3859 2.014862,0.039 2.014862,-1.29615 0,-1.00267 0.5625,-2.05002 1.25,-2.32743 0.850043,-0.343 0.767027,-0.52965 -0.259453,-0.58333 -0.830199,-0.0434 -2.109176,-1.03926 -2.84217,-2.21297 -1.098682,-1.75927 -1.102107,-2.27654 -0.01951,-2.94563 0.722265,-0.44638 0.991596,-1.13322 0.598513,-1.5263 -0.393083,-0.39308 -1.613028,0.32109 -2.710989,1.58705 -1.992793,2.29771 -1.992804,2.30477 -0.0063,4.02762 C 81.104523,260.95795 82,262.31931 82,263.03396 c 0,0.71466 -0.27295,1.02642 -0.606556,0.69282 -0.333605,-0.33361 -1.17722,-0.0735 -1.874701,0.57807 -1.37553,1.28494 -0.922054,3.69515 0.695235,3.69515 0.55,0 0.720167,-0.72923 0.378149,-1.62052 z M 50.259884,247.25 c 0.263283,-2.0625 0.13612,-4.1289 -0.282584,-4.59199 -0.418704,-0.46309 -0.925627,1.22441 -1.126496,3.75 -0.437032,5.49496 0.726375,6.19015 1.40908,0.84199 z M 82,246 c 0,-0.55 -1.0125,-0.99311 -2.25,-0.98469 -1.819438,0.0124 -1.962959,0.20082 -0.75,0.98469 1.938759,1.25292 3,1.25292 3,0 z m 2.16845,-2.23155 c -0.742068,-0.74207 -0.872211,-0.35164 -0.437237,1.31171 0.353609,1.3522 0.806902,1.8055 1.05655,1.05655 0.240481,-0.72144 -0.03821,-1.78716 -0.619313,-2.36826 z M 84,240 c 0,-0.55 -0.423442,-1 -0.940983,-1 -0.517541,0 -1.219098,0.45 -1.559017,1 -0.339919,0.55 0.08352,1 0.940983,1 C 83.298442,241 84,240.55 84,240 Z M 63,230 c 0,-0.55 -0.45,-1 -1,-1 -0.55,0 -1,0.45 -1,1 0,0.55 0.45,1 1,1 0.55,0 1,-0.45 1,-1 z m 11.361626,-0.5 C 74.678209,228.675 74.501354,228 73.968615,228 73.435877,228 73,228.675 73,229.5 c 0,0.825 0.176855,1.5 0.393011,1.5 0.216156,0 0.652033,-0.675 0.968615,-1.5 z m 58.179484,62.25 c -0.21787,-0.6875 -0.68612,-3.8375 -1.04057,-7 -0.38164,-3.40506 -1.12488,-5.74003 -1.8225,-5.72555 -1.03808,0.0215 -5.13773,0.8471 -12.42804,2.50269 -1.2375,0.28103 -2.25251,1.06489 -2.25558,1.74191 -0.003,0.67702 -0.47422,2.91845 -1.047,4.98095 L 112.90599,292 H 104.453 C 97.863237,292 96,291.69056 96,290.59616 c 0,-3.60417 9.54262,-32.72347 15.39148,-46.96711 3.5844,-8.72902 6.73746,-16.09132 7.00679,-16.36066 0.26934,-0.26934 3.36554,-0.72055 6.88043,-1.00269 12.59465,-1.01098 12.96177,-0.25429 20.74958,42.7674 2.20116,12.15978 3.74372,22.52679 3.4279,23.0378 -0.90634,1.46649 -16.44205,1.17176 -16.91507,-0.3209 z M 137,290 c 0,-0.55 -0.47656,-1 -1.05902,-1 -0.58246,0 -0.7809,0.45 -0.44098,1 0.33992,0.55 0.81648,1 1.05902,1 0.24254,0 0.44098,-0.45 0.44098,-1 z m 7.59091,-1.75 c -0.29913,-0.9625 -0.80568,-3.55 -1.12566,-5.75 -0.84892,-5.83653 -1.49261,-7.60112 -2.53725,-6.9555 -0.5104,0.31544 -0.928,0.097 -0.928,-0.48548 C 140,274.47656 139.33614,274 138.52475,274 c -1.16593,0 -1.27311,0.53166 -0.51119,2.53568 0.73551,1.93452 0.62607,2.66538 -0.4616,3.08276 -1.827,0.70108 -0.9155,3.1314 1.45684,3.88435 1.00322,0.31841 2.28824,1.91054 2.8556,3.53807 1.08071,3.10014 3.67123,4.24897 2.72651,1.20914 z M 110,285.16667 c 0,-0.45834 -0.675,-0.83334 -1.5,-0.83334 -0.825,0 -1.5,0.375 -1.5,0.83334 0,0.45833 0.675,0.83333 1.5,0.83333 0.825,0 1.5,-0.375 1.5,-0.83333 z m -0.925,-3.44167 c -0.12369,-1.1957 -1.49529,-0.96414 -1.925,0.325 -0.22,0.66 0.14,1.02 0.8,0.8 0.66,-0.22 1.16625,-0.72625 1.125,-1.125 z m 25.38229,-0.7941 c -0.31643,-0.51199 -1.11127,-0.89537 -1.76631,-0.85195 -0.85244,0.0565 -0.83389,0.22291 0.0652,0.58541 0.69093,0.27855 0.9589,0.98755 0.59549,1.57556 -0.39382,0.63721 -0.18776,0.77678 0.51008,0.34549 0.64395,-0.39798 0.91193,-1.14251 0.59549,-1.65451 z m -18.88586,-4.35947 c 0.78571,-0.78572 1.42857,-1.77572 1.42857,-2.2 0,-0.42429 -0.50483,-0.2666 -1.12186,0.35043 -0.61702,0.61702 -1.74202,0.88387 -2.5,0.59301 -0.81852,-0.3141 -1.37814,0.1237 -1.37814,1.07814 0,1.99078 1.67538,2.07447 3.57143,0.17842 z M 134,276.60699 c 0,-0.21616 -0.69837,-0.661 -1.55194,-0.98855 -0.88992,-0.34149 -1.29132,-0.17385 -0.94098,0.39301 0.58726,0.95021 2.49292,1.40545 2.49292,0.59554 z m 1,-5.04797 c 0,-1.05548 -1.91911,-1.49891 -2.48992,-0.57533 -0.34546,0.55897 0.0734,1.01631 0.9309,1.01631 0.85746,0 1.55902,-0.19844 1.55902,-0.44098 z m 2,-4.425 c 0,-0.41136 -1.2375,-1.23693 -2.75,-1.8346 -2.74611,-1.08512 -2.74469,-1.08681 1,-1.19304 3.86592,-0.10967 4.84573,-1.61065 2.55,-3.90638 -1.74969,-1.74969 -2.8331,-1.46719 -2.10929,0.55 0.34537,0.9625 0.25527,1.41152 -0.20023,0.99782 -0.4555,-0.4137 -1.64966,-0.009 -2.65371,0.8999 -1.76105,1.59373 -1.74625,1.72862 0.41885,3.81924 2.11798,2.04511 3.74438,2.33485 3.74438,0.66706 z M 118.58585,264.25 c 0.88698,-2.0625 1.97115,-4.875 2.40927,-6.25 0.43812,-1.375 1.11659,-3.2875 1.50772,-4.25 0.42304,-1.04103 0.26267,-1.75 -0.39585,-1.75 -0.60885,0 -1.10699,0.43666 -1.10699,0.97036 0,0.53371 -1.125,3.42987 -2.5,6.43593 -2.33169,5.0976 -3.1508,8.59371 -2.01342,8.59371 0.26762,0 1.21229,-1.6875 2.09927,-3.75 z m 10.03148,-2 c -0.29787,-1.5125 -0.81867,-4.775 -1.15733,-7.25 -0.64496,-4.71342 -2.92068,-8.87266 -4.17071,-7.62263 -0.40225,0.40226 -0.14443,1.09413 0.57294,1.53749 1.04773,0.64752 0.89448,2.13298 -0.77896,7.55096 -1.1458,3.70967 -2.08327,7.14745 -2.08327,7.63952 0,0.49206 1.83575,0.89466 4.07946,0.89466 3.91494,0 4.05761,-0.1109 3.53787,-2.75 z m -13.93422,-0.4375 c -0.31922,-0.79773 -0.55618,-0.56078 -0.60416,0.60417 -0.0434,1.05416 0.19292,1.64479 0.52522,1.3125 0.33229,-0.33229 0.36781,-1.1948 0.0789,-1.91667 z M 134,260 c 0,-0.55 -0.45,-1 -1,-1 -0.55,0 -1,0.45 -1,1 0,0.55 0.45,1 1,1 0.55,0 1,-0.45 1,-1 z m 1.72917,-5.60417 c -0.3323,-0.33229 -1.1948,-0.36781 -1.91667,-0.0789 -0.79773,0.31922 -0.56078,0.55618 0.60417,0.60416 1.05416,0.0434 1.64479,-0.19293 1.3125,-0.52522 z M 114,245 c 0,-0.55 -0.45,-1 -1,-1 -0.55,0 -1,0.45 -1,1 0,0.55 0.45,1 1,1 0.55,0 1,-0.45 1,-1 z m 21.5,-4 c 0.33992,-0.55 0.14148,-1 -0.44098,-1 -0.58246,0 -1.05902,0.45 -1.05902,1 0,0.55 0.19844,1 0.44098,1 0.24254,0 0.7191,-0.45 1.05902,-1 z m -0.5,-5.93261 c 0,-1.12602 -3.90781,-2.49291 -4.74203,-1.6587 -0.32522,0.32522 0.18525,0.59131 1.13438,0.59131 0.94913,0 1.44757,0.45 1.10765,1 -0.33992,0.55 0.0835,1 0.94098,1 0.85746,0 1.55902,-0.41968 1.55902,-0.93261 z m 134.71666,57.31594 c -0.40287,-0.40287 -0.46199,-4.81643 -0.13138,-9.80791 l 0.60111,-9.07542 -7.61906,-20.96141 c -6.97113,-19.17884 -8.31578,-24.73722 -5.57439,-23.04296 0.55388,0.34232 1.00706,0.20433 1.00706,-0.30665 0,-1.33418 8.94266,-3.67239 9.88368,-2.58426 1.29721,1.49999 10.15379,25.25673 9.87601,26.49122 -0.14283,0.63473 0.19129,1.32314 0.74248,1.52978 0.55119,0.20665 1.01882,-0.87627 1.03916,-2.40649 0.0204,-1.53021 2.22067,-8.05554 4.88961,-14.50072 5.33576,-12.88523 4.66593,-12.3523 13.92949,-11.08259 2.55176,0.34976 4.63957,1.04518 4.63957,1.54537 0,0.92334 -5.5395,0.48176 -9.88388,-0.78788 -1.73032,-0.50569 -2.26473,-0.33923 -1.94926,0.60717 0.23904,0.71713 2.55657,1.84265 5.15007,2.50116 2.5935,0.65852 4.89693,1.37878 5.11873,1.60059 0.22181,0.22181 -3.36898,9.62702 -7.97953,20.90048 -4.61055,11.27345 -8.39931,19.48469 -8.41947,18.24719 -0.0219,-1.34185 -0.65724,-2.25 -1.57419,-2.25 -1.29327,0 -1.49185,1.46944 -1.25,9.25 0.20976,6.74804 0.62563,9.18238 1.53753,9 0.73333,-0.14667 1.25,0.78333 1.25,2.25 0,2.34747 -0.32031,2.50083 -5.25,2.51365 -2.8875,0.008 -6.16144,0.25857 -7.27543,0.55791 -1.11398,0.29934 -2.35504,0.21463 -2.75791,-0.18823 z M 287.57177,260.75 c 0.38874,-3.66367 -0.85207,-3.49505 -2.28871,0.31103 -0.99358,2.63232 -0.93465,3.01747 0.42076,2.75 0.88109,-0.17387 1.70484,-1.52375 1.86795,-3.06103 z M 278.5,259 c -0.33992,-0.55 -1.04148,-1 -1.55902,-1 -0.51754,0 -0.94098,0.45 -0.94098,1 0,0.55 0.70156,1 1.55902,1 0.85746,0 1.2809,-0.45 0.94098,-1 z m 2,-2 c 0.33992,-0.55 0.14148,-1 -0.44098,-1 -0.58246,0 -1.05902,0.45 -1.05902,1 0,0.55 0.19844,1 0.44098,1 0.24254,0 0.7191,-0.45 1.05902,-1 z m 7,-12 c 0.33992,-0.55 0.14148,-1 -0.44098,-1 -0.58246,0 -1.05902,0.45 -1.05902,1 0,0.55 0.19844,1 0.44098,1 0.24254,0 0.7191,-0.45 1.05902,-1 z m -27,-15 c 0.33992,-0.55 0.14148,-1 -0.44098,-1 -0.58246,0 -1.05902,0.45 -1.05902,1 0,0.55 0.19844,1 0.44098,1 0.24254,0 0.7191,-0.45 1.05902,-1 z m -105.5105,57.25 c -0.0126,-5.68441 3.13447,-53.60627 3.55164,-54.08293 0.16026,-0.18311 3.81656,0.36872 8.12512,1.22628 4.30856,0.85756 10.24683,1.6526 13.19615,1.76677 2.97901,0.11531 5.97915,0.8243 6.75,1.59515 1.18345,1.18345 1.38759,1.1564 1.38759,-0.18384 0,-0.86429 0.675,-1.57143 1.5,-1.57143 1.35287,0 1.94411,1.1873 1.61842,3.25 -0.0651,0.4125 0.61168,0.75 1.50402,0.75 1.34861,0 1.4064,-0.26033 0.34239,-1.54238 -1.58291,-1.90728 -0.50204,-2.99948 3.75498,-3.79435 3.09196,-0.57732 3.26476,-0.43429 4.35163,3.60205 0.78352,2.90976 0.83324,5.74675 0.16156,9.21896 l -0.97025,5.01572 -0.13138,-4.75 c -0.0722,-2.6125 -0.48544,-4.75 -0.9182,-4.75 -0.43275,0 -0.52507,2.73771 -0.20516,6.0838 0.50876,5.32124 0.29047,6.48066 -1.74157,9.25 -1.27778,1.74141 -3.25779,3.87884 -4.40003,4.74985 l -2.07679,1.58364 2.10519,4.12652 c 1.15785,2.26958 2.10519,5.01788 2.10519,6.10733 0,1.08946 0.44485,2.25576 0.98855,2.59178 0.57445,0.35504 0.75979,-0.14385 0.44244,-1.19098 -0.30035,-0.99107 0.58447,0.22306 1.96627,2.69806 1.3818,2.475 2.5327,4.80492 2.55755,5.1776 0.0525,0.78752 -11.2935,7.82838 -12.58562,7.8101 -0.47805,-0.007 -3.29661,-4.73176 -6.26345,-10.5 -5.39717,-10.49336 -6.42141,-11.455 -10.52395,-9.88071 C 170.31497,272.09311 170,273.86894 170,280.5252 170,292.12101 170.08549,292 161.89301,292 H 155 Z M 188,264.60699 c 0,-0.21616 -0.675,-0.65203 -1.5,-0.96862 -0.825,-0.31658 -1.5,-0.13972 -1.5,0.39301 0,0.53274 0.675,0.96862 1.5,0.96862 0.825,0 1.5,-0.17686 1.5,-0.39301 z m -1,-4.55547 c 0,-1.95464 -4.89897,-8.12969 -5.11515,-6.44754 -0.31126,2.42186 0.47622,5.06166 1.96484,6.58659 2.20355,2.2573 3.15031,2.21552 3.15031,-0.13905 z m -5.28505,-7.4303 c 3.54889,-3.17781 5.71406,-8.33965 4.65537,-11.09855 -0.59421,-1.54849 -1.53572,-1.70305 -7.16951,-1.17696 -3.56701,0.33309 -6.60837,0.72907 -6.75858,0.87996 -0.1502,0.15088 -0.59847,3.57913 -0.99614,7.61833 l -0.72304,7.34401 3.88848,-0.34401 c 2.53113,-0.22392 5.0107,-1.34889 7.10342,-3.22278 z M 165,252 c 0,-0.55 -0.675,-1 -1.5,-1 -0.825,0 -1.5,0.45 -1.5,1 0,0.55 0.675,1 1.5,1 0.825,0 1.5,-0.45 1.5,-1 z m 23.66667,-0.7097 c 0,-0.7759 -0.61737,-1.13946 -1.41512,-0.83333 -0.77832,0.29867 -1.62988,0.54303 -1.89235,0.54303 -0.26248,0 -0.24547,0.375 0.0378,0.83333 0.83711,1.35447 3.26968,0.95047 3.26968,-0.54303 z M 191,249.62244 c 0,-0.20765 -0.7875,-0.99515 -1.75,-1.75 -1.58606,-1.24387 -1.62143,-1.2085 -0.37756,0.37756 1.30637,1.66575 2.12756,2.19548 2.12756,1.37244 z M 191.2,241.8 c -0.64167,-0.64167 -1.49863,-0.8347 -1.90437,-0.42896 -0.40574,0.40574 -0.0888,1.13877 0.70437,1.62896 1.86759,1.15423 2.71091,0.31091 1.2,-1.2 z m 24.40113,47.72739 c -3.24438,-1.33382 -6.31718,-2.84344 -6.82845,-3.35471 C 207.75017,285.15017 212.42166,275 213.91477,275 c 0.4846,0 2.83952,1.11958 5.23316,2.48795 4.64584,2.6559 10.68223,3.28189 12.65207,1.31205 1.9291,-1.9291 1.39004,-6.2804 -1.05,-8.47567 -1.2375,-1.11336 -4.5,-3.50805 -7.25,-5.32153 -10.11565,-6.67075 -10.5,-7.28761 -10.5,-16.85203 0,-7.27415 0.36036,-9.08996 2.54314,-12.8146 4.02647,-6.87065 12.20014,-10.0434 19.83209,-7.69815 1.22039,0.37502 1.63629,0.18963 1.19098,-0.53089 -1.04469,-1.69035 2.40753,-1.30222 7.00999,0.78813 5.01979,2.27989 6.89676,6.24554 6.9125,14.60474 l 0.0113,6 h -7 -7 l -0.5,-4.99132 c -0.39235,-3.91664 -0.91639,-5.07043 -2.4339,-5.35874 -3.49095,-0.66324 -5.82364,5.4094 -3.95174,10.28748 0.3379,0.88055 3.96138,3.91479 8.05218,6.74276 8.90101,6.15326 12.33346,11.2177 12.33346,18.19752 0,7.58451 -4.84719,15.10506 -11.3151,17.55569 -5.16325,1.9563 -16.5997,1.25972 -23.08377,-1.406 z M 239,285.05902 c 0,-1.06754 -0.3375,-2.14957 -0.75,-2.40451 -0.4125,-0.25494 -0.75,0.6185 -0.75,1.94098 0,1.32248 0.3375,2.40451 0.75,2.40451 0.4125,0 0.75,-0.87344 0.75,-1.94098 z M 246,280 c 0,-0.55 -0.45,-1 -1,-1 -0.55,0 -1,0.45 -1,1 0,0.55 0.45,1 1,1 0.55,0 1,-0.45 1,-1 z m -3,-1 c 0,-0.55 0.675,-1 1.5,-1 2.81733,0 1.50799,-1.57398 -1.5,-1.80318 -2.41681,-0.18415 -3,0.16329 -3,1.7873 0,1.12523 0.66273,2.01588 1.5,2.01588 0.825,0 1.5,-0.45 1.5,-1 z m 3,-5.10965 c 1.22896,-0.88404 1.15306,-0.9655 -0.42005,-0.45081 -1.09195,0.35726 -2.25455,0.087 -2.69563,-0.62671 -0.42656,-0.6902 -1.0701,-0.96038 -1.43008,-0.6004 -0.88948,0.88948 0.38286,2.79118 1.85478,2.77226 0.65504,-0.008 1.86598,-0.50087 2.69098,-1.09434 z M 246,270 c 0,-0.55 -0.45,-1 -1,-1 -0.55,0 -1,0.45 -1,1 0,0.55 0.45,1 1,1 0.55,0 1,-0.45 1,-1 z m -4.63837,-2.5 c 0.31658,-0.825 0.13972,-1.5 -0.39301,-1.5 -0.53274,0 -0.96862,0.675 -0.96862,1.5 0,0.825 0.17686,1.5 0.39301,1.5 0.21616,0 0.65203,-0.675 0.96862,-1.5 z m -3.1783,-6.71667 c -0.71756,-0.71756 -1.18333,-0.7766 -1.18333,-0.15 0,1.33478 1.18261,2.51739 1.85,1.85 0.28417,-0.28416 -0.0158,-1.04916 -0.66667,-1.7 z M 235,261 c 0,-0.55 -0.45,-1 -1,-1 -0.55,0 -1,0.45 -1,1 0,0.55 0.45,1 1,1 0.55,0 1,-0.45 1,-1 z"
         id="path50" />
      <path
         style="fill:#050405"
         d="m 170.5,235.3904 c -15.5838,-3.83244 -22.12166,-5.61693 -22.70388,-6.19695 -0.89802,-0.89462 3.68116,-14.0993 5.53087,-15.94901 1.19171,-1.19171 2.3223,-0.82547 7.79818,2.52614 5.99113,3.66697 7.30684,4.03242 20.38961,5.6634 20.96191,2.61324 19.48522,2.07093 19.48522,7.15584 0,3.46977 -0.45108,4.58617 -2.25,5.56867 -2.26096,1.23485 -24.32555,2.19703 -28.25,1.23191 z m 53.98685,-9.28787 -11.01315,-1.66476 -13.0637,-8.96889 C 193.22497,210.536 187.38089,206.05 187.42316,205.5 c 0.0423,-0.55 -1.38566,-1.14101 -3.17316,-1.31336 -3.69603,-0.35636 -4.39918,1.31899 -1,2.38263 2.54773,0.79721 26.03518,16.47888 25.49322,17.02084 -0.19342,0.19342 -9.32727,-0.80659 -20.29745,-2.22226 L 168.5,218.79392 143.12303,203.68928 c -13.95734,-8.30755 -24.98234,-15.23586 -24.5,-15.39625 0.48233,-0.16039 15.50197,1.92556 33.37697,4.63545 l 32.5,4.92708 25.8519,14.50745 c 25.3389,14.21957 27.91915,15.75602 26.06477,15.52063 -0.50417,-0.064 -5.87259,-0.8655 -11.92982,-1.78111 z"
         id="path48" />
    </g>
  </g>
</svg>
