<?xml version="1.0" encoding="UTF-8" standalone="no"?>
<svg
   xmlns:dc="http://purl.org/dc/elements/1.1/"
   xmlns:cc="http://creativecommons.org/ns#"
   xmlns:rdf="http://www.w3.org/1999/02/22-rdf-syntax-ns#"
   xmlns:svg="http://www.w3.org/2000/svg"
   xmlns="http://www.w3.org/2000/svg"
   xmlns:sodipodi="http://sodipodi.sourceforge.net/DTD/sodipodi-0.dtd"
   xmlns:inkscape="http://www.inkscape.org/namespaces/inkscape"
   version="1.1"
   id="svg78"
   width="420.57233"
   height="262.57968"
   viewBox="0 0 420.57233 262.57968"
   sodipodi:docname="logo-original.svg"
   inkscape:version="1.0.2-2 (e86c870879, 2021-01-15)">
  <metadata
     id="metadata84">
    <rdf:RDF>
      <cc:Work
         rdf:about="">
        <dc:format>image/svg+xml</dc:format>
        <dc:type
           rdf:resource="http://purl.org/dc/dcmitype/StillImage" />
        <dc:title></dc:title>
      </cc:Work>
    </rdf:RDF>
  </metadata>
  <defs
     id="defs82" />
  <sodipodi:namedview
     pagecolor="#ffffff"
     bordercolor="#666666"
     borderopacity="1"
     objecttolerance="10"
     gridtolerance="10"
     guidetolerance="10"
     inkscape:pageopacity="0"
     inkscape:pageshadow="2"
     inkscape:window-width="843"
     inkscape:window-height="510"
     id="namedview80"
     showgrid="false"
     inkscape:zoom="0.49084298"
     inkscape:cx="122.60152"
     inkscape:cy="155.77321"
     inkscape:window-x="0"
     inkscape:window-y="0"
     inkscape:window-maximized="0"
     inkscape:current-layer="g86" />
  <g
     inkscape:groupmode="layer"
     inkscape:label="Image"
     id="g86"
     transform="translate(-35.193567,-94.226793)">
    <g
       id="g90">
      <path
         style="fill:#edaacb"
         d="m 341.26903,356.30701 c 0.97297,-0.25354 2.32297,-0.23687 3,0.0371 0.67703,0.27393 -0.11903,0.48137 -1.76903,0.46099 -1.65,-0.0204 -2.20394,-0.2445 -1.23097,-0.49804 z M 204.75,354.33772 c 0.6875,-0.27741 1.8125,-0.27741 2.5,0 0.6875,0.27741 0.125,0.50439 -1.25,0.50439 -1.375,0 -1.9375,-0.22698 -1.25,-0.50439 z m -32.48097,-1.03071 c 0.97297,-0.25354 2.32297,-0.23687 3,0.0371 0.67703,0.27393 -0.11903,0.48137 -1.76903,0.46099 -1.65,-0.0204 -2.20394,-0.2445 -1.23097,-0.49804 z M 192.15789,350 c 0,-1.375 0.22698,-1.9375 0.50439,-1.25 0.27741,0.6875 0.27741,1.8125 0,2.5 -0.27741,0.6875 -0.50439,0.125 -0.50439,-1.25 z m 72,0 c 0,-1.375 0.22698,-1.9375 0.50439,-1.25 0.27741,0.6875 0.27741,1.8125 0,2.5 -0.27741,0.6875 -0.50439,0.125 -0.50439,-1.25 z M 369,347.5 c 1.29175,-1.375 2.57363,-2.5 2.84863,-2.5 0.275,0 -0.55688,1.125 -1.84863,2.5 -1.29175,1.375 -2.57363,2.5 -2.84863,2.5 -0.275,0 0.55688,-1.125 1.84863,-2.5 z m -189.92105,-3.08333 c 0.048,-1.16495 0.28494,-1.4019 0.60416,-0.60417 0.28887,0.72187 0.25335,1.58438 -0.0789,1.91667 -0.3323,0.33229 -0.56864,-0.25834 -0.52522,-1.3125 z M 219.15789,343 c 0,-1.375 0.22698,-1.9375 0.50439,-1.25 0.27741,0.6875 0.27741,1.8125 0,2.5 -0.27741,0.6875 -0.50439,0.125 -0.50439,-1.25 z m 45.92106,0.41667 c 0.048,-1.16495 0.28494,-1.4019 0.60416,-0.60417 0.28887,0.72187 0.25335,1.58438 -0.0789,1.91667 -0.33229,0.33229 -0.56864,-0.25834 -0.52522,-1.3125 z M 127.15789,339 c 0,-1.375 0.22698,-1.9375 0.50439,-1.25 0.27741,0.6875 0.27741,1.8125 0,2.5 -0.27741,0.6875 -0.50439,0.125 -0.50439,-1.25 z m 1,-6 c 0,-1.375 0.22698,-1.9375 0.50439,-1.25 0.27741,0.6875 0.27741,1.8125 0,2.5 -0.27741,0.6875 -0.50439,0.125 -0.50439,-1.25 z m 52.92106,0.41667 c 0.048,-1.16495 0.28494,-1.4019 0.60416,-0.60417 0.28887,0.72187 0.25335,1.58438 -0.0789,1.91667 -0.3323,0.33229 -0.56864,-0.25834 -0.52522,-1.3125 z m 161.73355,-1.09978 c 0.72187,-0.28887 1.58438,-0.25335 1.91667,0.0789 0.33229,0.33229 -0.25834,0.56864 -1.3125,0.52522 -1.16495,-0.048 -1.4019,-0.28494 -0.60417,-0.60416 z M 377.15789,330 c 0,-1.375 0.22698,-1.9375 0.50439,-1.25 0.27741,0.6875 0.27741,1.8125 0,2.5 -0.27741,0.6875 -0.50439,0.125 -0.50439,-1.25 z m -182.07894,-0.58333 c 0.048,-1.16495 0.28494,-1.4019 0.60416,-0.60417 0.28887,0.72187 0.25335,1.58438 -0.0789,1.91667 -0.3323,0.33229 -0.56864,-0.25834 -0.52522,-1.3125 z m 116,0 c 0.048,-1.16495 0.28494,-1.4019 0.60416,-0.60417 0.28887,0.72187 0.25335,1.58438 -0.0789,1.91667 -0.33229,0.33229 -0.56864,-0.25834 -0.52522,-1.3125 z m -147.35125,-1.1384 c 1.77523,-0.22091 4.92523,-0.22454 7,-0.008 2.07476,0.21648 0.6223,0.39722 -3.2277,0.40166 -3.85,0.004 -5.54754,-0.17268 -3.7723,-0.39359 z m 69.35125,-3.8616 c 0.048,-1.16495 0.28494,-1.4019 0.60416,-0.60417 0.28887,0.72187 0.25335,1.58438 -0.0789,1.91667 -0.3323,0.33229 -0.56864,-0.25834 -0.52522,-1.3125 z M 222.19495,321.5 c 0.0204,-1.65 0.2445,-2.20394 0.49804,-1.23097 0.25354,0.97297 0.23687,2.32297 -0.0371,3 -0.27393,0.67703 -0.48137,-0.11903 -0.46099,-1.76903 z m 46.96294,0.5 c 0,-1.375 0.22698,-1.9375 0.50439,-1.25 0.27741,0.6875 0.27741,1.8125 0,2.5 -0.27741,0.6875 -0.50439,0.125 -0.50439,-1.25 z m 25.92106,0.41667 c 0.048,-1.16495 0.28494,-1.4019 0.60416,-0.60417 0.28887,0.72187 0.25335,1.58438 -0.0789,1.91667 -0.33229,0.33229 -0.56864,-0.25834 -0.52522,-1.3125 z M 336.34281,316.5 c 0.004,-4.4 0.17944,-6.07561 0.39069,-3.72357 0.21124,2.35204 0.20827,5.95204 -0.007,8 -0.21487,2.04796 -0.38771,0.12357 -0.38408,-4.27643 z m 41.90937,0 c 0.0111,-2.2 0.21589,-2.98225 0.45508,-1.73834 0.23919,1.24391 0.23011,3.04391 -0.0202,4 -0.25029,0.95609 -0.446,-0.0617 -0.4349,-2.26166 z m -181.17323,0.91667 c 0.048,-1.16495 0.28494,-1.4019 0.60416,-0.60417 0.28887,0.72187 0.25335,1.58438 -0.0789,1.91667 -0.3323,0.33229 -0.56864,-0.25834 -0.52522,-1.3125 z m 35,0 c 0.048,-1.16495 0.28494,-1.4019 0.60416,-0.60417 0.28887,0.72187 0.25335,1.58438 -0.0789,1.91667 -0.3323,0.33229 -0.56864,-0.25834 -0.52522,-1.3125 z M 351.19495,315.5 c 0.0204,-1.65 0.2445,-2.20394 0.49804,-1.23097 0.25354,0.97297 0.23687,2.32297 -0.0371,3 -0.27393,0.67703 -0.48137,-0.11903 -0.46099,-1.76903 z m -40.116,-2.08333 c 0.048,-1.16495 0.28494,-1.4019 0.60416,-0.60417 0.28887,0.72187 0.25335,1.58438 -0.0789,1.91667 -0.33229,0.33229 -0.56864,-0.25834 -0.52522,-1.3125 z M 198.15789,310 c 0,-1.375 0.22698,-1.9375 0.50439,-1.25 0.27741,0.6875 0.27741,1.8125 0,2.5 -0.27741,0.6875 -0.50439,0.125 -0.50439,-1.25 z m 26.03706,-2.5 c 0.0204,-1.65 0.2445,-2.20394 0.49804,-1.23097 0.25354,0.97297 0.23687,2.32297 -0.0371,3 -0.27393,0.67703 -0.48137,-0.11903 -0.46099,-1.76903 z M 312,309.05902 c 0,-0.51754 0.44485,-1.21592 0.98855,-1.55194 0.56686,-0.35034 0.7345,0.0511 0.39301,0.94098 C 312.71677,310.18048 312,310.49745 312,309.05902 Z M 328,307 l -7.5,-0.63968 7.19098,-0.18016 c 3.95504,-0.0991 7.4691,0.26984 7.80902,0.81984 0.33992,0.55 0.47898,0.91893 0.30902,0.81984 C 335.63906,307.72075 332.125,307.35183 328,307 Z m -97.92105,-1.58333 c 0.048,-1.16495 0.28494,-1.4019 0.60416,-0.60417 0.28887,0.72187 0.25335,1.58438 -0.0789,1.91667 -0.3323,0.33229 -0.56864,-0.25834 -0.52522,-1.3125 z m 85.73355,0.90022 c 0.72187,-0.28887 1.58438,-0.25335 1.91667,0.0789 0.33229,0.33229 -0.25834,0.56864 -1.3125,0.52522 -1.16495,-0.048 -1.4019,-0.28494 -0.60417,-0.60416 z m -116.73355,-2.90022 c 0.048,-1.16495 0.28494,-1.4019 0.60416,-0.60417 0.28887,0.72187 0.25335,1.58438 -0.0789,1.91667 -0.3323,0.33229 -0.56864,-0.25834 -0.52522,-1.3125 z m 26,-5 c 0.048,-1.16495 0.28494,-1.4019 0.60416,-0.60417 0.28887,0.72187 0.25335,1.58438 -0.0789,1.91667 -0.3323,0.33229 -0.56864,-0.25834 -0.52522,-1.3125 z m 4,0 c 0.048,-1.16495 0.28494,-1.4019 0.60416,-0.60417 0.28887,0.72187 0.25335,1.58438 -0.0789,1.91667 -0.3323,0.33229 -0.56864,-0.25834 -0.52522,-1.3125 z M 368,295.52903 c 0,-1.205 -2.39588,-1.52715 -13.25,-1.78163 l -13.25,-0.31066 13.75,-0.21837 C 368.40612,293.00943 369,293.08638 369,295 c 0,1.1 -0.225,2 -0.5,2 -0.275,0 -0.5,-0.66194 -0.5,-1.47097 z m -225.75,-2.27058 c 3.7125,-0.19241 9.7875,-0.19241 13.5,0 3.7125,0.19241 0.675,0.34983 -6.75,0.34983 -7.425,0 -10.4625,-0.15742 -6.75,-0.34983 z m 71.18278,0.009 c 11.4493,-0.3002 12.47142,-0.48361 12.88457,-2.312 0.3617,-1.60069 0.42294,-1.54649 0.3157,0.27938 -0.13073,2.22577 -0.35573,2.26615 -12.88457,2.31201 l -12.75152,0.0467 12.43582,-0.32607 z m 20.31722,-0.005 c 2.8875,-0.202 7.6125,-0.202 10.5,0 2.8875,0.202 0.525,0.36728 -5.25,0.36728 -5.775,0 -8.1375,-0.16528 -5.25,-0.36728 z m 17.24775,-0.0128 c -0.001,-0.4125 3.26126,-0.62683 7.25,-0.47629 12.45505,0.47007 13.66496,0.89977 3.00225,1.06625 -5.6375,0.088 -10.25101,-0.17746 -10.25225,-0.58996 z m 30.29384,0.007 c 3.73537,-0.19293 9.58537,-0.19149 13,0.003 3.41462,0.19468 0.35841,0.35253 -6.79159,0.35078 -7.15,-0.002 -9.94379,-0.16103 -6.20841,-0.35396 z m -80.21264,-2.84083 c 0.048,-1.16495 0.28494,-1.4019 0.60416,-0.60417 0.28887,0.72187 0.25335,1.58438 -0.0789,1.91667 -0.3323,0.33229 -0.56864,-0.25834 -0.52522,-1.3125 z M 228.15789,290 c 0,-1.375 0.22698,-1.9375 0.50439,-1.25 0.27741,0.6875 0.27741,1.8125 0,2.5 -0.27741,0.6875 -0.50439,0.125 -0.50439,-1.25 z m 46.4064,-0.70687 c -0.54268,-1.4252 -0.42782,-1.54006 0.5598,-0.5598 0.68342,0.67834 0.99067,1.48524 0.68278,1.79313 -0.30789,0.30789 -0.86705,-0.24711 -1.24258,-1.23333 z M 336.87244,288.25 c -1.24387,-1.58606 -1.2085,-1.62143 0.37756,-0.37756 1.66575,1.30637 2.19548,2.12756 1.37244,2.12756 -0.20765,0 -0.99515,-0.7875 -1.75,-1.75 z m 31,-1 c -1.24387,-1.58606 -1.2085,-1.62143 0.37756,-0.37756 1.66575,1.30637 2.19548,2.12756 1.37244,2.12756 -0.20765,0 -0.99515,-0.7875 -1.75,-1.75 z M 164.15789,283 c 0,-1.375 0.22698,-1.9375 0.50439,-1.25 0.27741,0.6875 0.27741,1.8125 0,2.5 -0.27741,0.6875 -0.50439,0.125 -0.50439,-1.25 z m 199.71455,-0.75 c -1.24387,-1.58606 -1.2085,-1.62143 0.37756,-0.37756 1.66575,1.30637 2.19548,2.12756 1.37244,2.12756 -0.20765,0 -0.99515,-0.7875 -1.75,-1.75 z m -160.79349,-3.83333 c 0.048,-1.16495 0.28494,-1.4019 0.60416,-0.60417 0.28887,0.72187 0.25335,1.58438 -0.0789,1.91667 -0.3323,0.33229 -0.56864,-0.25834 -0.52522,-1.3125 z M 359.87244,278.25 c -1.24387,-1.58606 -1.2085,-1.62143 0.37756,-0.37756 0.9625,0.75485 1.75,1.54235 1.75,1.75 0,0.82304 -0.82119,0.29331 -2.12756,-1.37244 z M 165.085,275.75 c -0.0762,-1.56814 -1.37532,-1.75 -12.50167,-1.75 -6.82916,0 -12.60541,0.3375 -12.8361,0.75 -0.23069,0.4125 -0.26722,0.14816 -0.0812,-0.58742 0.18604,-0.73558 0.61241,-3.05186 0.94748,-5.14728 0.50883,-3.18205 1.07734,-3.90348 3.44999,-4.37801 2.34699,-0.46939 3.03078,-1.31288 3.93395,-4.85272 0.60125,-2.35651 1.63528,-6.06887 2.29785,-8.24969 l 1.20467,-3.96512 8.5,-1.73914 c 12.69835,-2.59815 11.90106,-2.98112 10.24158,4.91938 -0.77981,3.7125 -2.23992,11.25 -3.24471,16.75 -1.00478,5.5 -1.86512,9.2125 -1.91187,8.25 z m 138.01752,-0.5 C 303.02411,274.29398 298.17865,274 282.5,274 c -11.275,0 -20.5,-0.24561 -20.5,-0.54581 0,-0.30019 1.0125,-2.44458 2.25,-4.76532 1.60845,-3.01638 2.77529,-4.11789 4.09225,-3.8631 C 270.47549,265.23848 290,252.59773 290,250.80391 c 0,-0.65177 -1.6875,-4.47242 -3.75,-8.49034 l -3.75,-7.30531 3,-5.75413 c 2.93908,-5.63728 3.09433,-5.76023 7.64486,-6.05463 l 4.64485,-0.30049 -0.31584,10.80049 c -0.22391,7.65644 -0.0935,9.34498 0.44804,5.8005 0.49855,-3.26328 0.87507,-4.13164 1.08398,-2.5 0.17943,1.40133 0.61631,0.0829 0.99411,-3 l 0.67401,-5.5 0.17831,5.5 c 0.20319,6.26765 2.10583,5.20498 2.13237,-1.19098 0.008,-2.03004 0.46531,-3.9691 1.01531,-4.30902 0.56481,-0.34907 1,0.46994 1,1.88197 0,1.375 0.4019,2.74838 0.89311,3.05197 0.49972,0.30884 0.95515,-4.15825 1.03398,-10.14163 0.0775,-5.88148 0.35058,-10.90331 0.60689,-11.15962 0.25631,-0.25631 0.46602,2.03149 0.46602,5.08401 0,4.70903 0.30306,5.62929 2,6.07305 3.21875,0.84172 2.46108,10.09491 -0.89853,10.97346 -0.96888,0.25337 -3.54312,4.2609 -5.9232,9.22113 -4.57557,9.53573 -4.5228,10.2519 0.96449,13.08948 1.73678,0.89813 2.58054,1.98369 2.23721,2.87837 -0.30316,0.79002 -1.14154,4.94897 -1.86306,9.24211 -0.72153,4.29313 -1.358,7.2432 -1.41439,6.5557 z m 22.97643,-0.59571 c -0.0434,-1.01514 -0.81821,-3.26514 -1.72174,-5 -3.60038,-6.91302 -3.62847,-6.56835 0.44338,-5.43998 3.73902,1.03613 20.34082,0.56955 23.30649,-0.65502 1.15741,-0.47791 1.95244,0.1702 2.84138,2.31627 0.67886,1.63892 2.09317,3.75713 3.14292,4.70713 1.04974,0.95001 1.90862,2.10754 1.90862,2.5723 0,0.46475 -6.4875,0.84501 -14.41667,0.84501 -10.59766,0 -14.55028,0.33113 -14.92105,1.25 -0.28746,0.71241 -0.53834,0.45621 -0.58333,-0.59571 z m -120.87481,-4.07186 c 0.48468,-2.15466 0.65668,-4.50275 0.38222,-5.21797 -0.27446,-0.71523 -0.0421,-1.5828 0.51636,-1.92795 0.55846,-0.34514 0.89019,-1.59705 0.73718,-2.78202 -0.153,-1.18497 0.0514,-2.68375 0.45431,-3.33061 0.40288,-0.64687 1.38533,-5.37187 2.18323,-10.5 2.84072,-18.25758 3.65121,-22.33659 4.63437,-23.32388 0.66113,-0.66391 0.72566,3.03304 0.192,11 C 213.86172,241.1 213.5,250.325 213.5,255 v 8.5 h 12.5 12.5 l 0.5,-13.66936 c 0.275,-7.51815 0.7398,-13.90795 1.03289,-14.19956 0.29309,-0.29161 1.56197,6.7596 2.81973,15.66936 1.25776,8.90976 2.52723,17.64442 2.82105,19.41035 l 0.5342,3.2108 -20.94248,0.2892 L 204.3229,274.5 Z m -75.93511,-6.27542 c 0.97297,-0.25354 2.32297,-0.23687 3,0.0371 0.67703,0.27393 -0.11903,0.48137 -1.76903,0.46099 -1.65,-0.0204 -2.20394,-0.2445 -1.23097,-0.49804 z m 232.39764,0.0263 C 361.3,263.96667 361,262.14011 361,260.27432 c 0,-2.43747 -0.35185,-3.18639 -1.25,-2.66063 -0.6875,0.40245 0.0544,-0.58349 1.64862,-2.19098 1.59424,-1.60749 4.06924,-5.39771 5.5,-8.42271 2.21798,-4.6894 2.60138,-6.86334 2.60138,-14.75043 0,-5.08774 0.12144,-9.25024 0.26987,-9.25 0.14843,2.4e-4 2.00488,1.09569 4.12543,2.43434 8.52352,5.38066 11.6108,13.10033 10.87384,27.18973 -0.27943,5.34203 -1.02822,9.9836 -1.7511,10.85462 -0.97196,1.17115 -3.50022,1.52174 -10.97382,1.52174 -5.34099,0 -10.01089,-0.3 -10.37755,-0.66667 z M 424.19495,251.5 c 0.0204,-1.65 0.2445,-2.20394 0.49804,-1.23097 0.25354,0.97297 0.23687,2.32297 -0.0371,3 -0.27393,0.67703 -0.48137,-0.11903 -0.46099,-1.76903 z M 90,252.62244 c 0,-0.20765 0.7875,-0.99515 1.75,-1.75 1.586056,-1.24387 1.621426,-1.2085 0.377555,0.37756 C 90.821186,252.91575 90,253.44548 90,252.62244 Z m 236.75,-10.31177 c -0.9625,-0.25152 -1.75,-1.03653 -1.75,-1.74445 0,-1.37984 3.81247,-7.33577 7.55447,-11.80176 l 2.29208,-2.73554 2.57672,3.06226 c 3.40011,4.0408 3.57378,10.09705 0.35422,12.35212 -2.10395,1.47366 -7.17972,1.8729 -11.02749,0.86737 z M 354,241.96862 C 354,241.43588 354.675,241 355.5,241 c 0.825,0 1.5,0.17686 1.5,0.39301 0,0.21616 -0.675,0.65203 -1.5,0.96862 -0.825,0.31658 -1.5,0.13972 -1.5,-0.39301 z m 0.75,-2.6309 c 0.6875,-0.27741 1.8125,-0.27741 2.5,0 0.6875,0.27741 0.125,0.50439 -1.25,0.50439 -1.375,0 -1.9375,-0.22698 -1.25,-0.50439 z M 145.5,238 c 0.33992,-0.55 1.04148,-1 1.55902,-1 0.51754,0 0.94098,0.45 0.94098,1 0,0.55 -0.70156,1 -1.55902,1 -0.85746,0 -1.2809,-0.45 -0.94098,-1 z m 281.57895,-0.58333 c 0.048,-1.16495 0.28494,-1.4019 0.60416,-0.60417 0.28887,0.72187 0.25335,1.58437 -0.0789,1.91667 -0.33229,0.33229 -0.56864,-0.25834 -0.52522,-1.3125 z M 96,216.5 c 0,-0.825 0.435877,-1.5 0.968615,-1.5 0.532739,0 0.709594,0.675 0.393011,1.5 -0.316582,0.825 -0.752459,1.5 -0.968615,1.5 C 96.176855,218 96,217.325 96,216.5 Z m 202.07895,-0.0833 c 0.048,-1.16495 0.28494,-1.4019 0.60416,-0.60417 0.28887,0.72187 0.25335,1.58437 -0.0789,1.91667 -0.33229,0.33229 -0.56864,-0.25834 -0.52522,-1.3125 z m 1,-7 c 0.048,-1.16495 0.28494,-1.4019 0.60416,-0.60417 0.28887,0.72187 0.25335,1.58437 -0.0789,1.91667 -0.33229,0.33229 -0.56864,-0.25834 -0.52522,-1.3125 z m 1,-7 c 0.048,-1.16495 0.28494,-1.4019 0.60416,-0.60417 0.28887,0.72187 0.25335,1.58437 -0.0789,1.91667 -0.33229,0.33229 -0.56864,-0.25834 -0.52522,-1.3125 z m 1,-8 c 0.048,-1.16495 0.28494,-1.4019 0.60416,-0.60417 0.28887,0.72187 0.25335,1.58437 -0.0789,1.91667 -0.33229,0.33229 -0.56864,-0.25834 -0.52522,-1.3125 z M 302.15789,187 c 0,-1.375 0.22698,-1.9375 0.50439,-1.25 0.27741,0.6875 0.27741,1.8125 0,2.5 -0.27741,0.6875 -0.50439,0.125 -0.50439,-1.25 z m -10.96294,-3.5 c 0.0204,-1.65 0.2445,-2.20394 0.49804,-1.23097 0.25354,0.97297 0.23687,2.32297 -0.0371,3 -0.27393,0.67703 -0.48137,-0.11903 -0.46099,-1.76903 z m 11.96294,-5.5 c 0,-1.375 0.22698,-1.9375 0.50439,-1.25 0.27741,0.6875 0.27741,1.8125 0,2.5 -0.27741,0.6875 -0.50439,0.125 -0.50439,-1.25 z m 2,-21 c 0,-1.375 0.22698,-1.9375 0.50439,-1.25 0.27741,0.6875 0.27741,1.8125 0,2.5 -0.27741,0.6875 -0.50439,0.125 -0.50439,-1.25 z M 309,156.5 c 0,-1.375 0.3876,-2.5 0.86133,-2.5 0.47373,0 0.64627,1.125 0.38342,2.5 -0.26285,1.375 -0.65044,2.5 -0.86133,2.5 C 309.17254,159 309,157.875 309,156.5 Z"
         id="path104" />
      <path
         style="fill:#b093e3"
         d="m 62.8125,264.31689 c 0.721875,-0.28887 1.584375,-0.25335 1.916667,0.0789 0.332291,0.33229 -0.258334,0.56864 -1.3125,0.52522 -1.164943,-0.048 -1.4019,-0.28494 -0.604167,-0.60416 z m 71.9375,-0.0226 c 1.2375,-0.23836 3.2625,-0.23836 4.5,0 1.2375,0.23835 0.225,0.43337 -2.25,0.43337 -2.475,0 -3.4875,-0.19502 -2.25,-0.43337 z m 287,0.0435 c 0.6875,-0.27741 1.8125,-0.27741 2.5,0 0.6875,0.27741 0.125,0.50439 -1.25,0.50439 -1.375,0 -1.9375,-0.22698 -1.25,-0.50439 z M 426.15789,261 c 0,-1.375 0.22698,-1.9375 0.50439,-1.25 0.27741,0.6875 0.27741,1.8125 0,2.5 -0.27741,0.6875 -0.50439,0.125 -0.50439,-1.25 z m -309.07894,-0.58333 c 0.048,-1.16495 0.28494,-1.4019 0.60416,-0.60417 0.28887,0.72187 0.25335,1.58438 -0.0789,1.91667 -0.3323,0.33229 -0.56864,-0.25834 -0.52522,-1.3125 z m 282,-5 c 0.048,-1.16495 0.28494,-1.4019 0.60416,-0.60417 0.28887,0.72187 0.25335,1.58438 -0.0789,1.91667 -0.33229,0.33229 -0.56864,-0.25834 -0.52522,-1.3125 z M 175.15789,253 c 0,-1.375 0.22698,-1.9375 0.50439,-1.25 0.27741,0.6875 0.27741,1.8125 0,2.5 -0.27741,0.6875 -0.50439,0.125 -0.50439,-1.25 z m 37.92106,-4.58333 c 0.048,-1.16495 0.28494,-1.4019 0.60416,-0.60417 0.28887,0.72187 0.25335,1.58437 -0.0789,1.91667 -0.3323,0.33229 -0.56864,-0.25834 -0.52522,-1.3125 z M 35.194949,245.5 c 0.02038,-1.65 0.244498,-2.20394 0.498042,-1.23097 0.253543,0.97297 0.236869,2.32297 -0.03705,3 C 35.382014,247.94606 35.174569,247.15 35.194949,245.5 Z M 424.232,245 c 0,-1.925 0.2058,-2.7125 0.45733,-1.75 0.25152,0.9625 0.25152,2.5375 0,3.5 -0.25153,0.9625 -0.45733,0.175 -0.45733,-1.75 z M 186,243.59106 c 0,-0.19039 0.675,-0.90637 1.5,-1.59106 0.86459,-0.71755 1.5,-0.81474 1.5,-0.22943 0,0.5585 -0.675,1.27447 -1.5,1.59106 -0.825,0.31658 -1.5,0.41982 -1.5,0.22943 z M 424.232,238 c 0,-1.925 0.2058,-2.7125 0.45733,-1.75 0.25152,0.9625 0.25152,2.5375 0,3.5 -0.25153,0.9625 -0.45733,0.175 -0.45733,-1.75 z M 239,235.05902 c 0,-1.61754 0.35595,-3.16098 0.79101,-3.42986 0.43506,-0.26888 0.61082,1.05457 0.39059,2.94099 -0.49064,4.2027 -1.1816,4.48857 -1.1816,0.48887 z m -52.39699,1.10765 c -0.28327,-0.45834 0.14017,-0.83334 0.94098,-0.83334 0.8008,0 1.45601,0.375 1.45601,0.83334 0,0.45833 -0.42344,0.83333 -0.94098,0.83333 -0.51754,0 -1.17275,-0.375 -1.45601,-0.83333 z M 427.15789,234 c 0,-1.375 0.22698,-1.9375 0.50439,-1.25 0.27741,0.6875 0.27741,1.8125 0,2.5 -0.27741,0.6875 -0.50439,0.125 -0.50439,-1.25 z M 424,228.75 c 0,-0.87083 -0.5625,-1.81031 -1.25,-2.08772 -0.97906,-0.39506 -0.97226,-0.5215 0.0314,-0.58333 1.42594,-0.0879 2.81771,2.65529 1.84216,3.63084 C 424.28059,230.05274 424,229.62083 424,228.75 Z M 36.194949,226.5 c 0.02038,-1.65 0.244498,-2.20394 0.498042,-1.23097 0.253543,0.97297 0.236869,2.32297 -0.03705,3 C 36.382014,228.94606 36.174569,228.15 36.194949,226.5 Z M 215.15789,220 c 0,-1.375 0.22698,-1.9375 0.50439,-1.25 0.27741,0.6875 0.27741,1.8125 0,2.5 -0.27741,0.6875 -0.50439,0.125 -0.50439,-1.25 z m -55.34539,-0.68311 c 0.72187,-0.28887 1.58437,-0.25335 1.91667,0.0789 0.33229,0.33229 -0.25834,0.56864 -1.3125,0.52522 -1.16495,-0.048 -1.4019,-0.28494 -0.60417,-0.60416 z m 10.26645,-2.90022 c 0.048,-1.16495 0.28494,-1.4019 0.60416,-0.60417 0.28887,0.72187 0.25335,1.58437 -0.0789,1.91667 -0.3323,0.33229 -0.56864,-0.25834 -0.52522,-1.3125 z M 278,215.62244 c 0,-0.20765 0.7875,-0.99515 1.75,-1.75 1.58606,-1.24387 1.62143,-1.2085 0.37756,0.37756 C 278.82119,215.91575 278,216.44548 278,215.62244 Z M 62.157895,213 c 0,-1.375 0.226973,-1.9375 0.504386,-1.25 0.277412,0.6875 0.277412,1.8125 0,2.5 -0.277413,0.6875 -0.504386,0.125 -0.504386,-1.25 z M 96.5,214 c -0.339919,-0.55 -0.141476,-1 0.440983,-1 C 97.523442,213 98,213.45 98,214 c 0,0.55 -0.198442,1 -0.440983,1 -0.242541,0 -0.719098,-0.45 -1.059017,-1 z m 166.98992,-3.01631 c -0.34546,-0.55897 -1.11655,-0.71444 -1.71353,-0.34549 -0.66346,0.41004 -0.79636,0.20313 -0.34187,-0.53225 0.56934,-0.92122 1.07409,-0.92873 2.15451,-0.0321 1.41519,1.1745 1.7937,1.92611 0.96999,1.92611 -0.24254,0 -0.72364,-0.45734 -1.0691,-1.01631 z M 37.194949,208.5 c 0.02038,-1.65 0.244498,-2.20394 0.498042,-1.23097 0.253543,0.97297 0.236869,2.32297 -0.03705,3 C 37.382014,210.94606 37.174569,210.15 37.194949,208.5 Z M 428,209 c 0,-0.55 0.45,-1 1,-1 0.55,0 1,0.45 1,1 0,0.55 -0.45,1 -1,1 -0.55,0 -1,-0.45 -1,-1 z m -316.92105,-1.58333 c 0.048,-1.16495 0.28494,-1.4019 0.60416,-0.60417 0.28887,0.72187 0.25335,1.58437 -0.0789,1.91667 -0.3323,0.33229 -0.56864,-0.25834 -0.52522,-1.3125 z m 46.48534,-1.12354 c -0.54268,-1.4252 -0.42782,-1.54006 0.5598,-0.5598 0.68342,0.67834 0.99067,1.48524 0.68278,1.79313 -0.30789,0.30789 -0.86705,-0.24711 -1.24258,-1.23333 z M 216.15789,205 c 0,-1.375 0.22698,-1.9375 0.50439,-1.25 0.27741,0.6875 0.27741,1.8125 0,2.5 -0.27741,0.6875 -0.50439,0.125 -0.50439,-1.25 z M 258,201.94098 c 0,-0.58246 0.45,-0.7809 1,-0.44098 0.55,0.33992 1,0.81648 1,1.05902 0,0.24254 -0.45,0.44098 -1,0.44098 -0.55,0 -1,-0.47656 -1,-1.05902 z M 63.157895,197 c 0,-1.375 0.226973,-1.9375 0.504386,-1.25 0.277412,0.6875 0.277412,1.8125 0,2.5 -0.277413,0.6875 -0.504386,0.125 -0.504386,-1.25 z m -24.962946,-6.5 c 0.02038,-1.65 0.244498,-2.20394 0.498042,-1.23097 0.253543,0.97297 0.236869,2.32297 -0.03705,3 C 38.382014,192.94606 38.174569,192.15 38.194949,190.5 Z M 217.15789,190 c 0,-1.375 0.22698,-1.9375 0.50439,-1.25 0.27741,0.6875 0.27741,1.8125 0,2.5 -0.27741,0.6875 -0.50439,0.125 -0.50439,-1.25 z m 128.09429,-2.5 c 0.0111,-2.2 0.21589,-2.98225 0.45508,-1.73834 0.23919,1.24391 0.23011,3.04391 -0.0202,4 -0.25029,0.95609 -0.446,-0.0617 -0.4349,-2.26166 z m 24.82677,1.91667 c 0.048,-1.16495 0.28494,-1.4019 0.60416,-0.60417 0.28887,0.72187 0.25335,1.58437 -0.0789,1.91667 -0.33229,0.33229 -0.56864,-0.25834 -0.52522,-1.3125 z m -128,-1 c 0.048,-1.16495 0.28494,-1.4019 0.60416,-0.60417 0.28887,0.72187 0.25335,1.58437 -0.0789,1.91667 -0.3323,0.33229 -0.56864,-0.25834 -0.52522,-1.3125 z M 90.5,188 c -1.630408,-0.70061 -1.687513,-0.87242 -0.309017,-0.92971 C 91.121024,187.03163 92.160081,187.45 92.5,188 c 0.710664,1.14988 0.675913,1.14988 -2,0 z m 55,-1 c -0.33992,-0.55 -0.14148,-1 0.44098,-1 0.58246,0 1.05902,0.45 1.05902,1 0,0.55 -0.19844,1 -0.44098,1 -0.24254,0 -0.7191,-0.45 -1.05902,-1 z m -70.75,-6.66228 c 0.6875,-0.27741 1.8125,-0.27741 2.5,0 0.6875,0.27741 0.125,0.50439 -1.25,0.50439 -1.375,0 -1.9375,-0.22698 -1.25,-0.50439 z m 295.32895,-3.92105 c 0.048,-1.16495 0.28494,-1.4019 0.60416,-0.60417 0.28887,0.72187 0.25335,1.58437 -0.0789,1.91667 -0.33229,0.33229 -0.56864,-0.25834 -0.52522,-1.3125 z M 218.15789,175 c 0,-1.375 0.22698,-1.9375 0.50439,-1.25 0.27741,0.6875 0.27741,1.8125 0,2.5 -0.27741,0.6875 -0.50439,0.125 -0.50439,-1.25 z M 178.5,175 c -0.33992,-0.55 -0.14148,-1 0.44098,-1 0.58246,0 1.05902,0.45 1.05902,1 0,0.55 -0.19844,1 -0.44098,1 -0.24254,0 -0.7191,-0.45 -1.05902,-1 z M 39.194949,172.5 c 0.02038,-1.65 0.244498,-2.20394 0.498042,-1.23097 0.253543,0.97297 0.236869,2.32297 -0.03705,3 C 39.382014,174.94606 39.174569,174.15 39.194949,172.5 Z m 139.408061,-1.33333 c -0.28327,-0.45834 0.12038,-0.83334 0.89699,-0.83334 0.77661,0 1.18026,0.375 0.89699,0.83334 C 180.11373,171.625 179.71008,172 179.5,172 c -0.21008,0 -0.61373,-0.375 -0.89699,-0.83333 z M 315,165.62244 c 0,-0.20765 0.7875,-0.99515 1.75,-1.75 1.58606,-1.24387 1.62143,-1.2085 0.37756,0.37756 C 315.82119,165.91575 315,166.44548 315,165.62244 Z M 62,163 c 0,-0.55 0.476558,-1 1.059017,-1 0.582459,0 0.780902,0.45 0.440983,1 -0.339919,0.55 -0.816476,1 -1.059017,1 C 62.198442,164 62,163.55 62,163 Z m 322.60301,-0.83333 c -0.28327,-0.45834 0.12038,-0.83334 0.89699,-0.83334 0.77661,0 1.18026,0.375 0.89699,0.83334 C 386.11373,162.625 385.71008,163 385.5,163 c -0.21008,0 -0.61373,-0.375 -0.89699,-0.83333 z M 182.40499,158.75 180.5,156.5 l 2.25,1.90499 c 1.2375,1.04774 2.25,2.06024 2.25,2.25 0,0.80025 -0.80479,0.20945 -2.59501,-1.90499 z M 69.75,154.33772 c 0.6875,-0.27741 1.8125,-0.27741 2.5,0 0.6875,0.27741 0.125,0.50439 -1.25,0.50439 -1.375,0 -1.9375,-0.22698 -1.25,-0.50439 z m 10,0 c 0.6875,-0.27741 1.8125,-0.27741 2.5,0 0.6875,0.27741 0.125,0.50439 -1.25,0.50439 -1.375,0 -1.9375,-0.22698 -1.25,-0.50439 z"
         id="path102" />
      <path
         style="fill:#e3609b"
         d="m 125.15789,350 c 0,-1.375 0.22698,-1.9375 0.50439,-1.25 0.27741,0.6875 0.27741,1.8125 0,2.5 -0.27741,0.6875 -0.50439,0.125 -0.50439,-1.25 z M 371,344.62244 c 0,-0.20765 0.7875,-0.99515 1.75,-1.75 1.58606,-1.24387 1.62143,-1.2085 0.37756,0.37756 C 371.82119,344.91575 371,345.44548 371,344.62244 Z m -177.92105,-3.20577 c 0.048,-1.16495 0.28494,-1.4019 0.60416,-0.60417 0.28887,0.72187 0.25335,1.58438 -0.0789,1.91667 -0.3323,0.33229 -0.56864,-0.25834 -0.52522,-1.3125 z m 73,-2 c 0.048,-1.16495 0.28494,-1.4019 0.60416,-0.60417 0.28887,0.72187 0.25335,1.58438 -0.0789,1.91667 -0.33229,0.33229 -0.56864,-0.25834 -0.52522,-1.3125 z M 292.15789,338 c 0,-1.375 0.22698,-1.9375 0.50439,-1.25 0.27741,0.6875 0.27741,1.8125 0,2.5 -0.27741,0.6875 -0.50439,0.125 -0.50439,-1.25 z m -72.07894,-4.58333 c 0.048,-1.16495 0.28494,-1.4019 0.60416,-0.60417 0.28887,0.72187 0.25335,1.58438 -0.0789,1.91667 -0.3323,0.33229 -0.56864,-0.25834 -0.52522,-1.3125 z m 15.37993,-0.4832 c -0.36253,-0.58659 -0.44468,-1.281 -0.18255,-1.54313 0.26212,-0.26213 0.74306,0.21781 1.06875,1.06653 0.67618,1.76211 0.0999,2.07206 -0.8862,0.4766 z M 181,330.72703 c 0,-1.11977 -1.13584,-1.72511 -3.75,-1.99856 l -3.75,-0.39226 3.78138,-0.16811 c 2.6,-0.11558 3.96639,0.31401 4.37354,1.37503 0.32569,0.84872 0.31156,1.82372 -0.0314,2.16666 C 181.28059,332.05274 181,331.6105 181,330.72703 Z m -51.92105,-3.31036 c 0.048,-1.16495 0.28494,-1.4019 0.60416,-0.60417 0.28887,0.72187 0.25335,1.58438 -0.0789,1.91667 -0.3323,0.33229 -0.56864,-0.25834 -0.52522,-1.3125 z m 28.47869,0.67659 c -0.30822,-0.49871 0.34022,-0.67122 1.44098,-0.38337 2.33499,0.61061 2.63015,1.29011 0.5604,1.29011 -0.79254,0 -1.69316,-0.40803 -2.00138,-0.90674 z M 311.32814,321.5 c 0.004,-3.85 0.18518,-5.30246 0.40166,-3.2277 0.21647,2.07477 0.21284,5.22477 -0.008,7 -0.22091,1.77524 -0.39803,0.0777 -0.39359,-3.7723 z m -115.24919,3.91667 c 0.048,-1.16495 0.28494,-1.4019 0.60416,-0.60417 0.28887,0.72187 0.25335,1.58438 -0.0789,1.91667 -0.3323,0.33229 -0.56864,-0.25834 -0.52522,-1.3125 z m -65,-6 c 0.048,-1.16495 0.28494,-1.4019 0.60416,-0.60417 0.28887,0.72187 0.25335,1.58438 -0.0789,1.91667 -0.3323,0.33229 -0.56864,-0.25834 -0.52522,-1.3125 z m 27,-2 c 0.048,-1.16495 0.28494,-1.4019 0.60416,-0.60417 0.28887,0.72187 0.25335,1.58438 -0.0789,1.91667 -0.3323,0.33229 -0.56864,-0.25834 -0.52522,-1.3125 z m -26,-3 c 0.048,-1.16495 0.28494,-1.4019 0.60416,-0.60417 0.28887,0.72187 0.25335,1.58438 -0.0789,1.91667 -0.3323,0.33229 -0.56864,-0.25834 -0.52522,-1.3125 z m 165,-4 c 0.048,-1.16495 0.28494,-1.4019 0.60416,-0.60417 0.28887,0.72187 0.25335,1.58438 -0.0789,1.91667 -0.33229,0.33229 -0.56864,-0.25834 -0.52522,-1.3125 z M 133.19495,307.5 c 0.0204,-1.65 0.2445,-2.20394 0.49804,-1.23097 0.25354,0.97297 0.23687,2.32297 -0.0371,3 -0.27393,0.67703 -0.48137,-0.11903 -0.46099,-1.76903 z m 185.61755,-1.18311 c 0.72187,-0.28887 1.58438,-0.25335 1.91667,0.0789 0.33229,0.33229 -0.25834,0.56864 -1.3125,0.52522 -1.16495,-0.048 -1.4019,-0.28494 -0.60417,-0.60416 z m -158.73355,-1.90022 c 0.048,-1.16495 0.28494,-1.4019 0.60416,-0.60417 0.28887,0.72187 0.25335,1.58438 -0.0789,1.91667 -0.3323,0.33229 -0.56864,-0.25834 -0.52522,-1.3125 z m -26,-4 c 0.048,-1.16495 0.28494,-1.4019 0.60416,-0.60417 0.28887,0.72187 0.25335,1.58438 -0.0789,1.91667 -0.3323,0.33229 -0.56864,-0.25834 -0.52522,-1.3125 z M 161,299.02903 c 0,-0.56349 -5.56068,-1.10135 -13.25,-1.28163 l -13.25,-0.31066 13.75,-0.21837 c 11.65261,-0.18506 13.75,0.0104 13.75,1.28163 0,0.825 -0.225,1.5 -0.5,1.5 -0.275,0 -0.5,-0.43694 -0.5,-0.97097 z M 200.25557,299 c 0.33368,-1.22729 2.66558,-1.50934 12.82613,-1.55135 l 12.4183,-0.0514 -11.96173,0.33492 c -7.90942,0.22146 -12.25456,0.74702 -12.82613,1.55136 -0.61972,0.87211 -0.74896,0.79184 -0.45657,-0.28357 z m 86.24443,-1 -13,-0.59167 13.25,-0.20417 C 295.05278,297.07623 300,297.37338 300,298 c 0,0.55 -0.1125,0.90813 -0.25,0.79584 -0.1375,-0.11229 -6.1,-0.47042 -13.25,-0.79584 z m 58.49765,-0.25 c 10e-4,-0.4125 5.51485,-0.67138 12.25235,-0.57529 12.43366,0.17732 10.95424,0.56762 -4.00235,1.05589 -4.53879,0.14817 -8.25129,-0.0681 -8.25,-0.4806 z M 239.75,297.25412 c 5.6375,-0.17825 14.8625,-0.17825 20.5,0 5.6375,0.17825 1.025,0.32409 -10.25,0.32409 -11.275,0 -15.8875,-0.14584 -10.25,-0.32409 z M 228.15789,286 c 0,-1.375 0.22698,-1.9375 0.50439,-1.25 0.27741,0.6875 0.27741,1.8125 0,2.5 -0.27741,0.6875 -0.50439,0.125 -0.50439,-1.25 z m 17.92106,-7.58333 c 0.048,-1.16495 0.28494,-1.4019 0.60416,-0.60417 0.28887,0.72187 0.25335,1.58438 -0.0789,1.91667 -0.3323,0.33229 -0.56864,-0.25834 -0.52522,-1.3125 z m 14.79002,-3.6875 c 0.42498,-0.42396 10.19082,-0.64815 21.70186,-0.49821 l 20.92917,0.27264 -21.70187,0.4982 c -11.93602,0.27401 -21.35415,0.15132 -20.92916,-0.27263 z M 146.29159,274.2575 c 3.73537,-0.19293 9.58537,-0.19149 13,0.003 3.41462,0.19468 0.35841,0.35253 -6.79159,0.35078 -7.15,-0.002 -9.94379,-0.16103 -6.20841,-0.35396 z m 69.01276,-0.004 c 5.94239,-0.17711 15.39239,-0.17644 21,0.001 5.60761,0.17792 0.74565,0.32282 -10.80435,0.322 -11.55,-8.2e-4 -16.13804,-0.14638 -10.19565,-0.32348 z m 118.94565,0.003 c 4.2625,-0.18745 11.2375,-0.18745 15.5,0 4.2625,0.18745 0.775,0.34082 -7.75,0.34082 -8.525,0 -12.0125,-0.15337 -7.75,-0.34082 z M 297.62978,235.5 c 0.2179,-4.95 0.44742,-10.90378 0.51003,-13.23063 0.0626,-2.32685 0.48934,-3.99856 0.94829,-3.71492 1.4943,0.92352 1.9347,6.7977 1.04553,13.94555 -0.47893,3.85 -1.00062,5.875 -1.15931,4.5 -0.17719,-1.53533 -0.56871,-0.57066 -1.01463,2.5 -0.50789,3.49734 -0.60704,2.29521 -0.32991,-4 z m 3.78827,-2.39669 C 301.73812,229.58513 302,225.17107 302,223.29429 c 0,-2.02024 0.40796,-3.16019 1,-2.79429 0.55,0.33992 1,-0.11008 1,-1 0,-0.88992 0.40803,-1.36586 0.90674,-1.05764 0.49871,0.30822 0.67122,-0.34022 0.38337,-1.44098 C 304.9914,215.85912 305.2588,215 305.91305,215 c 0.79118,0 1.10233,2.93985 1.00436,9.48963 -0.0783,5.23365 -0.54009,9.24357 -1.02968,8.94098 C 305.39948,233.12886 305,231.75697 305,230.38197 c 0,-1.41203 -0.43519,-2.23104 -1,-1.88197 -0.55,0.33992 -1.00689,2.27898 -1.01531,4.30902 -0.008,2.03004 -0.4953,4.36598 -1.08196,5.19098 -0.77905,1.09557 -0.90973,-0.22466 -0.48468,-4.89669 z M 307.27236,208 c 0,-2.475 0.19502,-3.4875 0.43337,-2.25 0.23836,1.2375 0.23836,3.2625 0,4.5 -0.23835,1.2375 -0.43337,0.225 -0.43337,-2.25 z m -4.19341,-26.58333 c 0.048,-1.16495 0.28494,-1.4019 0.60416,-0.60417 0.28887,0.72187 0.25335,1.58437 -0.0789,1.91667 -0.33229,0.33229 -0.56864,-0.25834 -0.52522,-1.3125 z M 308.15789,172 c 0,-1.375 0.22698,-1.9375 0.50439,-1.25 0.27741,0.6875 0.27741,1.8125 0,2.5 -0.27741,0.6875 -0.50439,0.125 -0.50439,-1.25 z m -4.92122,-1.76031 c -1.16756,-2.49062 -1.13981,-2.5714 0.36607,-1.06552 0.89617,0.89617 1.46467,2.10889 1.26333,2.69493 -0.20134,0.58604 -0.93457,-0.1472 -1.6294,-1.62941 z"
         id="path100" />
      <path
         style="fill:#9364d5"
         d="m 59.8125,264.31689 c 0.721875,-0.28887 1.584375,-0.25335 1.916667,0.0789 0.332291,0.33229 -0.258334,0.56864 -1.3125,0.52522 -1.164943,-0.048 -1.4019,-0.28494 -0.604167,-0.60416 z m 81.9375,0.0208 c 0.6875,-0.27741 1.8125,-0.27741 2.5,0 0.6875,0.27741 0.125,0.50439 -1.25,0.50439 -1.375,0 -1.9375,-0.22698 -1.25,-0.50439 z m 186.51903,-0.0307 c 0.97297,-0.25354 2.32297,-0.23687 3,0.0371 0.67703,0.27393 -0.11903,0.48137 -1.76903,0.46099 -1.65,-0.0204 -2.20394,-0.2445 -1.23097,-0.49804 z m 8.98097,0.004 c 0.9625,-0.25152 2.5375,-0.25152 3.5,0 0.9625,0.25153 0.175,0.45733 -1.75,0.45733 -1.925,0 -2.7125,-0.2058 -1.75,-0.45733 z m 74.5,-0.0341 c 1.7875,-0.22182 4.7125,-0.22182 6.5,0 1.7875,0.22183 0.325,0.40333 -3.25,0.40333 -3.575,0 -5.0375,-0.1815 -3.25,-0.40333 z m -174.53943,-1.67574 c 0.70919,-0.76953 1.44699,-1.24947 1.63957,-1.06653 C 239.44328,262.09779 237.94,264 236.90156,264 c -0.53923,0 -0.40017,-0.62961 0.30901,-1.39914 z m -61.13162,-1.18419 c 0.048,-1.16495 0.28494,-1.4019 0.60416,-0.60417 0.28887,0.72187 0.25335,1.58438 -0.0789,1.91667 -0.3323,0.33229 -0.56864,-0.25834 -0.52522,-1.3125 z m 6.58772,-1.08334 C 181.73453,259.4012 181.83462,258 182.83333,258 c 0.45834,0 0.83334,0.675 0.83334,1.5 0,1.69935 -0.0731,1.76025 -1,0.83333 z m 216.41228,-1.91666 c 0.048,-1.16495 0.28494,-1.4019 0.60416,-0.60417 0.28887,0.72187 0.25335,1.58438 -0.0789,1.91667 -0.33229,0.33229 -0.56864,-0.25834 -0.52522,-1.3125 z M 426.28601,254.5 c 0.008,-2.75 0.20172,-3.75631 0.43157,-2.23625 0.22986,1.52006 0.22371,3.77006 -0.0136,5 -0.23736,1.22994 -0.42542,-0.0138 -0.41792,-2.76375 z M 213.232,253 c 0,-1.925 0.2058,-2.7125 0.45733,-1.75 0.25152,0.9625 0.25152,2.5375 0,3.5 -0.25153,0.9625 -0.45733,0.175 -0.45733,-1.75 z m -21.88692,-0.54313 c -0.32569,-0.84872 -0.36872,-1.76657 -0.0956,-2.03966 0.27309,-0.2731 0.73656,0.42131 1.02992,1.54313 0.62315,2.38293 -0.0692,2.75089 -0.9343,0.49653 z M 287,253.62244 c 0,-0.20765 0.7875,-0.99515 1.75,-1.75 1.58606,-1.24387 1.62143,-1.2085 0.37756,0.37756 C 287.82119,253.91575 287,254.44548 287,253.62244 Z M 35.194949,250.5 c 0.02038,-1.65 0.244498,-2.20394 0.498042,-1.23097 0.253543,0.97297 0.236869,2.32297 -0.03705,3 C 35.382014,252.94606 35.174569,252.15 35.194949,250.5 Z M 136,251.94098 c 0,-0.58246 0.45,-0.7809 1,-0.44098 0.55,0.33992 1,0.81648 1,1.05902 0,0.24254 -0.45,0.44098 -1,0.44098 -0.55,0 -1,-0.47656 -1,-1.05902 z m 39.07895,-2.52431 c 0.048,-1.16495 0.28494,-1.4019 0.60416,-0.60417 0.28887,0.72187 0.25335,1.58437 -0.0789,1.91667 -0.3323,0.33229 -0.56864,-0.25834 -0.52522,-1.3125 z m 103.52406,-1.25 c -0.28327,-0.45834 0.14017,-0.83334 0.94098,-0.83334 0.8008,0 1.45601,0.375 1.45601,0.83334 0,0.45833 -0.42344,0.83333 -0.94098,0.83333 -0.51754,0 -1.17275,-0.375 -1.45601,-0.83333 z m 121.47594,-0.75 c 0.048,-1.16495 0.28494,-1.4019 0.60416,-0.60417 0.28887,0.72187 0.25335,1.58437 -0.0789,1.91667 -0.33229,0.33229 -0.56864,-0.25834 -0.52522,-1.3125 z M 159.8125,245.31689 c 0.72187,-0.28887 1.58437,-0.25335 1.91667,0.0789 0.33229,0.33229 -0.25834,0.56864 -1.3125,0.52522 -1.16495,-0.048 -1.4019,-0.28494 -0.60417,-0.60416 z m 5,-1 c 0.72187,-0.28887 1.58437,-0.25335 1.91667,0.0789 0.33229,0.33229 -0.25834,0.56864 -1.3125,0.52522 -1.16495,-0.048 -1.4019,-0.28494 -0.60417,-0.60416 z m 166.45653,-1.00988 c 0.97297,-0.25354 2.32297,-0.23687 3,0.0371 0.67703,0.27393 -0.11903,0.48137 -1.76903,0.46099 -1.65,-0.0204 -2.20394,-0.2445 -1.23097,-0.49804 z M 337,242.62244 c 0,-0.20765 0.7875,-0.99515 1.75,-1.75 1.58606,-1.24387 1.62143,-1.2085 0.37756,0.37756 C 337.82119,242.91575 337,243.44548 337,242.62244 Z M 214.25218,237.5 c 0.0111,-2.2 0.21589,-2.98225 0.45508,-1.73834 0.23919,1.24391 0.23011,3.04391 -0.0202,4 -0.25029,0.95609 -0.446,-0.0617 -0.4349,-2.26166 z M 356,240.60699 c 0,-0.21616 0.69837,-0.661 1.55194,-0.98855 0.88992,-0.34149 1.29132,-0.17385 0.94098,0.39301 C 357.90566,240.96166 356,241.4169 356,240.60699 Z m 4.56429,-0.90012 c 0.37553,-0.98622 0.93469,-1.54122 1.24258,-1.23333 0.30789,0.30789 6.4e-4,1.11479 -0.68278,1.79313 -0.98762,0.98026 -1.10248,0.8654 -0.5598,-0.5598 z M 146,239.60699 c 0,-0.21616 0.675,-0.65203 1.5,-0.96862 0.825,-0.31658 1.5,-0.13972 1.5,0.39301 0,0.53274 -0.675,0.96862 -1.5,0.96862 -0.825,0 -1.5,-0.17686 -1.5,-0.39301 z m 207.75,-1.26927 c 0.6875,-0.27741 1.8125,-0.27741 2.5,0 0.6875,0.27741 0.125,0.50439 -1.25,0.50439 -1.375,0 -1.9375,-0.22698 -1.25,-0.50439 z m 47.32895,-0.92105 c 0.048,-1.16495 0.28494,-1.4019 0.60416,-0.60417 0.28887,0.72187 0.25335,1.58437 -0.0789,1.91667 -0.33229,0.33229 -0.56864,-0.25834 -0.52522,-1.3125 z M 340.15789,236 c 0,-1.375 0.22698,-1.9375 0.50439,-1.25 0.27741,0.6875 0.27741,1.8125 0,2.5 -0.27741,0.6875 -0.50439,0.125 -0.50439,-1.25 z M 357,235.60699 c 0,-0.21616 0.69837,-0.661 1.55194,-0.98855 0.88992,-0.34149 1.29132,-0.17385 0.94098,0.39301 C 358.90566,235.96166 357,236.4169 357,235.60699 Z M 36.194949,231.5 c 0.02038,-1.65 0.244498,-2.20394 0.498042,-1.23097 0.253543,0.97297 0.236869,2.32297 -0.03705,3 C 36.382014,233.94606 36.174569,233.15 36.194949,231.5 Z M 61.157895,224 c 0,-1.375 0.226973,-1.9375 0.504386,-1.25 0.277412,0.6875 0.277412,1.8125 0,2.5 -0.277413,0.6875 -0.504386,0.125 -0.504386,-1.25 z m 153.999995,0 c 0,-1.375 0.22698,-1.9375 0.50439,-1.25 0.27741,0.6875 0.27741,1.8125 0,2.5 -0.27741,0.6875 -0.50439,0.125 -0.50439,-1.25 z M 183,224.05902 c 0,-0.51754 0.44485,-1.21592 0.98855,-1.55194 0.56686,-0.35034 0.7345,0.0511 0.39301,0.94098 C 183.71677,225.18048 183,225.49745 183,224.05902 Z m -90.666667,-1.51503 c 0,-0.80081 0.382341,-1.21971 0.849646,-0.9309 0.467304,0.28881 0.590747,0.94401 0.274316,1.45601 -0.808625,1.30838 -1.123962,1.16106 -1.123962,-0.52511 z m 71.930417,-3.26157 c 1.52006,-0.22986 3.77006,-0.22371 5,0.0136 1.22994,0.23736 -0.0137,0.42542 -2.76375,0.41792 -2.75,-0.008 -3.75631,-0.20172 -2.23625,-0.43157 z m 101.24333,-0.27097 c -0.35034,-0.56686 0.0511,-0.7345 0.94098,-0.39301 1.73242,0.66479 2.04939,1.38156 0.61096,1.38156 -0.51754,0 -1.21592,-0.44485 -1.55194,-0.98855 z M 273,219.62244 c 0,-0.20765 0.7875,-0.99515 1.75,-1.75 1.58606,-1.24387 1.62143,-1.2085 0.37756,0.37756 C 273.82119,219.91575 273,220.44548 273,219.62244 Z m -96.37267,-2.09366 c 0.27983,-0.72922 2.05275,-1.50611 3.93982,-1.72641 3.94803,-0.46091 3.37588,0.44356 -1.25787,1.98847 -2.55683,0.85245 -3.08965,0.80039 -2.68195,-0.26206 z m 249.83155,-0.59531 c -0.36253,-0.58659 -0.38909,-1.33659 -0.059,-1.66667 0.33008,-0.33007 0.60014,-0.0486 0.60014,0.62555 0,0.67413 0.45,0.94757 1,0.60765 0.55,-0.33992 1,-0.14148 1,0.44098 0,1.37306 -1.69097,1.36806 -2.54112,-0.008 z m -278.12555,-1.47746 c 0,-0.8008 0.375,-1.45601 0.83334,-1.45601 0.45833,0 0.83333,0.42344 0.83333,0.94098 0,0.51754 -0.375,1.17275 -0.83333,1.45601 -0.45834,0.28327 -0.83334,-0.14017 -0.83334,-0.94098 z M 37.194949,213.5 c 0.02038,-1.65 0.244498,-2.20394 0.498042,-1.23097 0.253543,0.97297 0.236869,2.32297 -0.03705,3 C 37.382014,215.94606 37.174569,215.15 37.194949,213.5 Z m 149.209561,1.65451 C 186.79695,214.51953 186.61492,214 186,214 c -0.61492,0 -0.83992,-0.45 -0.5,-1 0.33992,-0.55 0.14148,-1 -0.44098,-1 C 184.47656,212 184,211.52344 184,210.94098 c 0,-1.45201 1.77017,-0.23895 2.99733,2.05403 0.70745,1.32188 0.66297,2.0969 -0.14913,2.59881 -0.71794,0.44371 -0.88637,0.27695 -0.44369,-0.43931 z M 179,214.60699 c 0,-0.21616 0.675,-0.65203 1.5,-0.96862 0.825,-0.31658 1.5,-0.13972 1.5,0.39301 0,0.53274 -0.675,0.96862 -1.5,0.96862 -0.825,0 -1.5,-0.17686 -1.5,-0.39301 z m 85,-0.48896 c 0,-0.55 0.45,-1.27811 1,-1.61803 0.55,-0.33992 1,-0.16803 1,0.38197 0,0.55 -0.45,1.27811 -1,1.61803 -0.55,0.33992 -1,0.16803 -1,-0.38197 z M 342,213 c 0,-0.55 0.45,-1 1,-1 0.55,0 1,0.45 1,1 0,0.55 -0.45,1 -1,1 -0.55,0 -1,-0.45 -1,-1 z m 85,0 c 0,-0.55 0.47656,-1 1.05902,-1 0.58246,0 0.7809,0.45 0.44098,1 -0.33992,0.55 -0.81648,1 -1.05902,1 C 427.19844,214 427,213.55 427,213 Z m -67.12756,-1.75 c -1.24387,-1.58606 -1.2085,-1.62143 0.37756,-0.37756 0.9625,0.75485 1.75,1.54235 1.75,1.75 0,0.82304 -0.82119,0.29331 -2.12756,-1.37244 z m 53.59652,-0.30022 c -0.95021,-1.53748 0.35135,-2.52947 1.63484,-1.24598 0.71818,0.71818 0.73543,1.27752 0.0524,1.69964 -0.55992,0.34605 -1.31919,0.1419 -1.68727,-0.45366 z M 62.194949,208.5 c 0.02038,-1.65 0.244498,-2.20394 0.498042,-1.23097 0.253543,0.97297 0.236869,2.32297 -0.03705,3 C 62.382014,210.94606 62.174569,210.15 62.194949,208.5 Z M 216.15789,209 c 0,-1.375 0.22698,-1.9375 0.50439,-1.25 0.27741,0.6875 0.27741,1.8125 0,2.5 -0.27741,0.6875 -0.50439,0.125 -0.50439,-1.25 z m 44.2471,-0.23277 c -1.16722,-1.36805 -1.28843,-1.75869 -0.31298,-1.00867 0.8756,0.67325 1.8131,1.00299 2.08333,0.73276 0.27023,-0.27022 0.49133,0.18368 0.49133,1.00868 0,1.91654 -0.002,1.91595 -2.26168,-0.73277 z M 91.872445,207.25 c -1.269516,-1.61876 -1.222451,-1.63998 0.627555,-0.28297 1.1,0.80687 2.1875,1.59437 2.416667,1.75 0.229166,0.15563 -0.05323,0.28297 -0.627556,0.28297 -0.574322,0 -1.661822,-0.7875 -2.416666,-1.75 z M 264.5,208 c 0.33992,-0.55 0.81648,-1 1.05902,-1 0.24254,0 0.44098,0.45 0.44098,1 0,0.55 -0.47656,1 -1.05902,1 -0.58246,0 -0.7809,-0.45 -0.44098,-1 z m -3.25,-1.70573 c -1.2375,-0.23836 -2.25,-0.85207 -2.25,-1.36382 0,-1.34616 1.33477,-1.14447 3.55887,0.53775 1.06762,0.8075 1.71613,1.42122 1.44113,1.36381 -0.275,-0.0574 -1.5125,-0.29939 -2.75,-0.53774 z m -150.17105,-1.8776 c 0.048,-1.16495 0.28494,-1.4019 0.60416,-0.60417 0.28887,0.72187 0.25335,1.58437 -0.0789,1.91667 -0.3323,0.33229 -0.56864,-0.25834 -0.52522,-1.3125 z M 85,204.15182 c 0,-0.50521 0.9,-1.15391 2,-1.44157 1.1,-0.28766 2,-0.35597 2,-0.15181 0,0.20415 -0.9,0.85286 -2,1.44156 -1.104923,0.59134 -2,0.65928 -2,0.15182 z m 3.078947,-4.73515 c 0.04798,-1.16495 0.284941,-1.4019 0.604167,-0.60417 0.288871,0.72187 0.253344,1.58437 -0.07895,1.91667 -0.332292,0.33229 -0.568641,-0.25834 -0.52522,-1.3125 z M 286,193.30195 c 0,-4.19941 0.2625,-7.37278 0.58333,-7.05195 0.32084,0.32083 0.58334,2.74549 0.58334,5.38812 0,2.64263 0.40426,5.56015 0.89835,6.48337 0.63235,1.18155 0.45962,1.84694 -0.58333,2.24716 C 286.2525,200.84034 286,199.63608 286,193.30195 Z M 258.5,198 c 0.99549,-1.1 2.03498,-2 2.30998,-2 0.275,0 -0.31449,0.9 -1.30998,2 -0.99549,1.1 -2.03498,2 -2.30998,2 -0.275,0 0.31449,-0.9 1.30998,-2 z M 38.194949,195.5 c 0.02038,-1.65 0.244498,-2.20394 0.498042,-1.23097 0.253543,0.97297 0.236869,2.32297 -0.03705,3 C 38.382014,197.94606 38.174569,197.15 38.194949,195.5 Z M 415,197 c -0.90129,-0.58246 -1.02463,-0.97549 -0.30902,-0.98469 0.65504,-0.008 1.4691,0.43469 1.80902,0.98469 0.7673,1.24153 0.42112,1.24153 -1.5,0 z M 41,195.94098 c 0,-0.58246 0.45,-0.7809 1,-0.44098 0.55,0.33992 1,0.81648 1,1.05902 C 43,196.80156 42.55,197 42,197 c -0.55,0 -1,-0.47656 -1,-1.05902 z m 200.07895,-0.52431 c 0.048,-1.16495 0.28494,-1.4019 0.60416,-0.60417 0.28887,0.72187 0.25335,1.58437 -0.0789,1.91667 -0.3323,0.33229 -0.56864,-0.25834 -0.52522,-1.3125 z M 217.15789,194 c 0,-1.375 0.22698,-1.9375 0.50439,-1.25 0.27741,0.6875 0.27741,1.8125 0,2.5 -0.27741,0.6875 -0.50439,0.125 -0.50439,-1.25 z M 63.157895,193 c 0,-1.375 0.226973,-1.9375 0.504386,-1.25 0.277412,0.6875 0.277412,1.8125 0,2.5 -0.277413,0.6875 -0.504386,0.125 -0.504386,-1.25 z M 163,193.60699 c 0,-0.21616 0.69837,-0.661 1.55194,-0.98855 0.88992,-0.34149 1.29132,-0.17385 0.94098,0.39301 C 164.90566,193.96166 163,194.4169 163,193.60699 Z m 190.25,-0.34203 c 2.6125,-0.206 6.8875,-0.206 9.5,0 2.6125,0.206 0.475,0.37454 -4.75,0.37454 -5.225,0 -7.3625,-0.16854 -4.75,-0.37454 z m -242.17105,-2.84829 c 0.048,-1.16495 0.28494,-1.4019 0.60416,-0.60417 0.28887,0.72187 0.25335,1.58437 -0.0789,1.91667 -0.3323,0.33229 -0.56864,-0.25834 -0.52522,-1.3125 z m -68.349783,-0.0208 C 42.328125,189.99479 42,188.97667 42,188.13333 c 0,-1.12559 0.295833,-1.2375 1.1125,-0.42083 0.611875,0.61187 0.94,1.63 0.729167,2.2625 -0.210834,0.6325 -0.711459,0.82187 -1.1125,0.42083 z m 50.604166,-1.85184 c 0,-0.80081 0.382341,-1.21971 0.849646,-0.9309 0.467304,0.28881 0.590747,0.94401 0.274316,1.45601 -0.808625,1.30838 -1.123962,1.16106 -1.123962,-0.52511 z M 334.19495,186.5 c 0.0204,-1.65 0.2445,-2.20394 0.49804,-1.23097 0.25354,0.97297 0.23687,2.32297 -0.0371,3 -0.27393,0.67703 -0.48137,-0.11903 -0.46099,-1.76903 z m 36.10471,-3.5 c 0,-3.025 0.18747,-4.2625 0.41659,-2.75 0.22913,1.5125 0.22913,3.9875 0,5.5 -0.22912,1.5125 -0.41659,0.275 -0.41659,-2.75 z m -25.10471,-1.5 c 0.0204,-1.65 0.2445,-2.20394 0.49804,-1.23097 0.25354,0.97297 0.23687,2.32297 -0.0371,3 -0.27393,0.67703 -0.48137,-0.11903 -0.46099,-1.76903 z M 95.8125,180.31689 c 0.721875,-0.28887 1.584375,-0.25335 1.916667,0.0789 0.332291,0.33229 -0.258334,0.56864 -1.3125,0.52522 -1.164943,-0.048 -1.4019,-0.28494 -0.604167,-0.60416 z M 218.15789,179 c 0,-1.375 0.22698,-1.9375 0.50439,-1.25 0.27741,0.6875 0.27741,1.8125 0,2.5 -0.27741,0.6875 -0.50439,0.125 -0.50439,-1.25 z M 39.194949,177.5 c 0.02038,-1.65 0.244498,-2.20394 0.498042,-1.23097 0.253543,0.97297 0.236869,2.32297 -0.03705,3 C 39.382014,179.94606 39.174569,179.15 39.194949,177.5 Z M 167,177 c 0,-0.55 0.45,-1 1,-1 0.55,0 1,0.45 1,1 0,0.55 -0.45,1 -1,1 -0.55,0 -1,-0.45 -1,-1 z m 107.5,0 c 0.33992,-0.55 0.81648,-1 1.05902,-1 0.24254,0 0.44098,0.45 0.44098,1 0,0.55 -0.47656,1 -1.05902,1 -0.58246,0 -0.7809,-0.45 -0.44098,-1 z m -7.79767,-1.33333 c -0.28141,-0.73334 0.0775,-1.33334 0.79767,-1.33334 0.72013,0 1.07908,0.6 0.79767,1.33334 C 268.01626,176.4 267.65731,177 267.5,177 c -0.15731,0 -0.51626,-0.6 -0.79767,-1.33333 z M 452.8125,165.31689 c 0.72187,-0.28887 1.58438,-0.25335 1.91667,0.0789 0.33229,0.33229 -0.25834,0.56864 -1.3125,0.52522 -1.16495,-0.048 -1.4019,-0.28494 -0.60417,-0.60416 z M 52.5,164 c 0.339919,-0.55 0.816476,-1 1.059017,-1 C 53.801558,163 54,163.45 54,164 c 0,0.55 -0.476558,1 -1.059017,1 -0.582459,0 -0.780902,-0.45 -0.440983,-1 z M 388,162 c 0,-0.55 0.47656,-1 1.05902,-1 0.58246,0 0.7809,0.45 0.44098,1 -0.33992,0.55 -0.81648,1 -1.05902,1 C 388.19844,163 388,162.55 388,162 Z m 53.75,0.33772 c 0.6875,-0.27741 1.8125,-0.27741 2.5,0 0.6875,0.27741 0.125,0.50439 -1.25,0.50439 -1.375,0 -1.9375,-0.22698 -1.25,-0.50439 z m 3.0625,-6.02083 c 0.72187,-0.28887 1.58438,-0.25335 1.91667,0.0789 0.33229,0.33229 -0.25834,0.56864 -1.3125,0.52522 -1.16495,-0.048 -1.4019,-0.28494 -0.60417,-0.60416 z M 344.75,155.33772 c 0.6875,-0.27741 1.8125,-0.27741 2.5,0 0.6875,0.27741 0.125,0.50439 -1.25,0.50439 -1.375,0 -1.9375,-0.22698 -1.25,-0.50439 z m 91.0625,-0.0208 c 0.72187,-0.28887 1.58438,-0.25335 1.91667,0.0789 0.33229,0.33229 -0.25834,0.56864 -1.3125,0.52522 -1.16495,-0.048 -1.4019,-0.28494 -0.60417,-0.60416 z M 74.25,154.31067 c 0.9625,-0.25152 2.5375,-0.25152 3.5,0 0.9625,0.25153 0.175,0.45733 -1.75,0.45733 -1.925,0 -2.7125,-0.2058 -1.75,-0.45733 z M 281,151 c 0.825,-0.53316 1.95,-0.96937 2.5,-0.96937 0.55,0 0.325,0.43621 -0.5,0.96937 -0.825,0.53316 -1.95,0.96937 -2.5,0.96937 -0.55,0 -0.325,-0.43621 0.5,-0.96937 z m -23,-3 c 0.825,-0.53316 1.95,-0.96937 2.5,-0.96937 0.55,0 0.325,0.43621 -0.5,0.96937 -0.825,0.53316 -1.95,0.96937 -2.5,0.96937 -0.55,0 -0.325,-0.43621 0.5,-0.96937 z m -22.26667,-3.12409 c 0.67834,-0.68342 1.48524,-0.99067 1.79313,-0.68278 0.30789,0.30789 -0.24711,0.86705 -1.23333,1.24258 -1.4252,0.54268 -1.54006,0.42782 -0.5598,-0.5598 z"
         id="path98" />
      <path
         style="fill:#d92676"
         d="m 332.5,355.11473 c -9.51297,-2.4944 -15.9974,-9.13814 -19.00003,-19.46682 -2.17698,-7.48857 -1.83938,-26.18364 0.50003,-27.68928 0.825,-0.53096 6,-0.85137 11.5,-0.71201 l 10,0.25338 0.52691,10 c 0.57662,10.94347 1.74673,14.1541 5.50195,15.0966 7.68709,1.92934 11.0073,-3.37904 10.20558,-16.31673 -0.3998,-6.45158 -1.07147,-9.17926 -3.12192,-12.67807 C 347.17564,301.14993 346,298.88649 346,298.57193 346,298.25737 351.175,298 357.5,298 H 369 v -2.5 -2.5 l -13.75,-0.0669 -13.75,-0.0669 -6,-7.01693 c -10.32102,-12.0703 -11.06547,-10.85875 6.62803,-10.78678 l 15.37197,0.0625 5.95201,6.92342 c 6.72844,7.82658 11.60987,17.47367 13.53436,26.74778 1.55462,7.49171 0.81126,21.69156 -1.47473,28.17076 -2.30507,6.53325 -7.72701,12.502 -14.26025,15.69842 -4.96392,2.42862 -7.05935,2.83053 -15.73885,3.01877 -5.5069,0.11943 -11.36254,-0.13683 -13.01254,-0.56948 z m -206.16856,-2.69339 c -0.63633,-1.65824 1.38248,-14.39558 4.74238,-29.92134 1.62584,-7.51283 3.83174,-20.92431 3.90637,-23.75 0.0324,-1.22753 26.01981,-0.91115 26.01981,0.31678 0,0.58673 -0.9172,6.96736 -2.03823,14.17918 -1.12103,7.21181 -1.81015,13.70676 -1.53139,14.43322 0.37988,0.98993 3.42799,1.32082 12.1674,1.32082 h 11.66055 l -0.67256,5.75 c -0.36991,3.1625 -1.21553,8.45 -1.87916,11.75 l -1.20661,6 -5,0.6362 c -2.75,0.34992 -14.1251,0.69138 -25.27801,0.75881 -17.71879,0.10713 -20.35531,-0.0789 -20.89055,-1.47367 z m 67.91856,0.91638 c -1.65602,-0.66822 -1.56906,-7.16831 0.20809,-15.55404 0.78285,-3.69397 2.3738,-13.36897 3.53546,-21.5 1.16165,-8.13102 2.34365,-15.57118 2.62666,-16.53368 0.45315,-1.54113 1.94994,-1.75 12.54102,-1.75 h 12.02645 l -0.63544,5.25 c -0.34948,2.8875 -1.05569,8.175 -1.56934,11.75 -0.51366,3.575 -1.64131,11.45 -2.5059,17.5 -0.86459,6.05 -1.81667,12.69642 -2.11574,14.76982 -0.87633,6.07557 -2.19492,6.74086 -13.18269,6.65123 -5.32321,-0.0434 -10.24107,-0.30592 -10.92857,-0.58333 z m 71.07535,-0.93224 c -0.59629,-1.55392 0.38984,-8.68935 3.16557,-22.90548 0.75172,-3.85 2.34286,-12.5125 3.53586,-19.25 l 2.1691,-12.25 h 12.41388 12.41388 l -0.57654,4.25 c -0.31709,2.3375 -1.17896,7.625 -1.91527,11.75 -0.73632,4.125 -2.07785,11.775 -2.9812,17 -0.90334,5.225 -2.11616,12.2 -2.69515,15.5 -0.57899,3.3 -1.57083,6.33061 -2.20409,6.73469 -0.63327,0.40408 -6.00301,0.74158 -11.93277,0.75 -8.95438,0.0127 -10.88508,-0.2549 -11.39327,-1.57921 z m -26.07754,-18.12675 c -3.60749,-0.67019 -3.95653,-1.80856 -7.72823,-25.20495 C 230.68381,303.88937 230,299.27687 230,298.82378 230,298.3707 238.775,298 249.5,298 c 10.725,0 19.48848,0.3375 19.47439,0.75 -0.0141,0.4125 -3.95158,8.625 -8.75,18.25 l -8.72439,17.5 -5,0.0986 c -2.75,0.0542 -6.01349,-0.0897 -7.25219,-0.31983 z M 136.35796,291.25 c 0.271,-0.9625 0.7883,-3.325 1.14956,-5.25 0.36125,-1.925 1.08719,-5.1875 1.6132,-7.25 l 0.95637,-3.75 h 12.46145 c 9.63745,0 12.46146,0.29831 12.46146,1.31634 0,1.60755 -1.91579,12.51424 -2.62314,14.93366 -0.45336,1.55069 -1.99226,1.75 -13.51164,1.75 -11.90199,0 -12.95838,-0.14781 -12.50726,-1.75 z m 65.96627,-2 c 0.31892,-2.0625 0.88441,-6.1125 1.25664,-9 l 0.67679,-5.25 h 20.72971 20.72971 l 1.23334,7.75 c 0.67833,4.2625 1.40287,8.3125 1.61007,9 0.28379,0.9416 -2.08272,1.25 -9.59187,1.25 H 229 v -4.44098 c 0,-6.25379 -1.78466,-6.66305 -2.58976,-0.59389 L 225.74234,293 h -11.99898 -11.99898 z m 54.22979,-5.25 4.61402,-9 h 20.91598 C 293.58781,275 303,275.20285 303,275.45078 c 0,0.24793 -0.42077,2.61043 -0.93504,5.25 -0.51428,2.63957 -1.20967,6.48672 -1.54532,8.54922 L 299.90937,293 H 287.56 275.21062 L 276,289.5 c 0.4547,-2.01609 0.40319,-3.5 -0.12149,-3.5 -0.50098,0 -1.66193,1.575 -2.5799,3.5 l -1.66903,3.5 h -9.84479 -9.84478 z m 44.63506,-56.60078 c -0.10399,-2.25542 -0.65842,-5.44713 -1.23206,-7.09267 -0.79356,-2.2764 -0.43727,-7.63308 1.48985,-22.39922 3.75598,-28.77948 3.67112,-27.56452 2.02088,-28.93409 -2.16701,-1.79846 -1.84784,-6.71893 0.53225,-8.20531 1.31659,-0.82223 1.97526,-2.27737 1.92759,-4.25848 -0.067,-2.78402 -1.6416,-4.05486 -21.02126,-16.96581 -11.52187,-7.676 -22.36799,-14.426 -24.10248,-15 -4.06107,-1.34394 -4.67282,-3.28744 -1.30115,-4.13367 3.51176,-0.8814 7.4973,1.01566 7.4973,3.56859 0,1.11179 0.46964,2.02144 1.04364,2.02144 0.57401,0 2.25691,1.125 3.73979,2.5 1.48287,1.375 3.26323,2.5 3.95635,2.5 0.69312,0 1.26022,0.45 1.26022,1 0,0.55 0.675,1 1.5,1 0.825,0 1.5,0.45 1.5,1 0,0.55 0.675,1 1.5,1 0.825,0 1.5,0.45 1.5,1 0,0.55 0.675,1 1.5,1 0.825,0 1.5,0.45 1.5,1 0,0.55 0.675,1 1.5,1 0.825,0 1.5,0.45 1.5,1 0,0.55 0.675,1 1.5,1 0.825,0 1.5,0.37914 1.5,0.84253 0,0.46339 1.575,1.69072 3.5,2.7274 1.925,1.03668 3.5,2.23255 3.5,2.65747 0,0.42493 0.59015,0.7726 1.31144,0.7726 0.72129,0 2.18379,0.81022 3.25,1.80049 1.06621,0.99027 2.72606,2.10115 3.68856,2.46861 1.21016,0.46203 1.75,1.75748 1.75,4.19952 0,1.94226 0.40598,3.53138 0.90217,3.53138 0.4962,0 1.38413,1.38253 1.97318,3.07228 0.94988,2.72482 0.77878,3.3645 -1.51289,5.65617 -2.19543,2.19543 -2.5009,3.19938 -2.0318,6.67773 0.81495,6.04285 -1.30679,38.96103 -2.5612,39.7363 -0.58349,0.36062 -0.77548,1.39946 -0.42663,2.30853 0.37203,0.96951 0.22556,1.40027 -0.35428,1.04191 C 304.44485,218.1569 304,218.61008 304,219.5 c 0,0.88992 -0.42717,1.35403 -0.94927,1.03135 -0.5434,-0.33584 -1.1039,1.88361 -1.31092,5.19099 -0.27366,4.37204 -0.40764,4.78 -0.55073,1.67688 z M 298.19495,223.5 c 0.0204,-1.65 0.2445,-2.20394 0.49804,-1.23097 0.25354,0.97297 0.23687,2.32297 -0.0371,3 -0.27393,0.67703 -0.48137,-0.11903 -0.46099,-1.76903 z"
         id="path96" />
      <path
         style="fill:#5516c4"
         d="m 36.222457,263.76804 c -1.663171,-2.00399 3.503391,-100.35103 5.369894,-102.21753 0.650778,-0.65078 5.846226,-2.27837 11.545441,-3.61687 14.136362,-3.32003 32.153824,-3.46961 38.862208,-0.32265 15.32799,7.1905 22.42782,26.97524 18.63825,51.93828 -2.70309,17.80608 -8.37586,29.87065 -19.289143,41.02321 -10.294725,10.52044 -17.912359,13.25409 -39.358341,14.12407 -12.24742,0.49683 -14.705509,0.35209 -15.768309,-0.92851 z m 7.50671,-6.37221 c -0.332292,-0.33229 -1.194792,-0.36781 -1.916667,-0.0789 -0.797733,0.31922 -0.560776,0.55618 0.604167,0.60416 1.054166,0.0434 1.644791,-0.19293 1.3125,-0.52522 z m 1.041491,-5.2078 c 0.217612,-0.65284 -0.336171,-1.46781 -1.230628,-1.81104 -2.086063,-0.8005 -2.755712,-0.10262 -1.940361,2.02215 0.70046,1.82537 2.532826,1.70338 3.170989,-0.21111 z M 47.2,247.8 c -0.933333,-0.93333 -1.466667,-0.93333 -2.4,0 -0.933333,0.93333 -0.666667,1.2 1.2,1.2 1.866667,0 2.133333,-0.26667 1.2,-1.2 z m 22.35842,-13.08597 c 3.706558,-1.93479 7.708047,-6.21394 9.937302,-10.62686 C 82.015915,219.09832 85,210.03997 85,207.37863 c 0,-1.34841 0.906609,-2.79346 2.180221,-3.47508 1.999802,-1.07026 2.041178,-1.26849 0.5,-2.39543 -2.154951,-1.57574 -2.307061,-5.68589 -0.180221,-4.86975 0.825,0.31659 1.5,0.0775 1.5,-0.53138 C 89,195.49814 88.369883,195 87.599741,195 c -0.860584,0 -1.880214,-2.00068 -2.645566,-5.19102 -0.684919,-2.85506 -2.284348,-6.23006 -3.554286,-7.5 -2.555928,-2.55593 -4.970305,-2.81058 -12.100668,-1.27631 -3.651239,0.78566 -5.091452,1.6562 -6.020912,3.63938 -0.671929,1.43369 -0.891885,3.19603 -0.48879,3.91633 1.284943,2.29606 -1.405695,37.55557 -2.938664,38.50976 -1.095444,0.68185 -1.114513,1.22219 -0.100855,2.85778 0.6875,1.10932 1.25,3.34164 1.25,4.96071 0,2.75075 0.184136,2.89095 2.80842,2.13831 1.544631,-0.44299 4.132131,-1.4964 5.75,-2.34091 z M 96,228.16667 c 0,-1.30208 -1.188773,-2.16804 -2.155792,-1.57039 C 92.809989,227.23547 93.701763,229 95.059017,229 95.576558,229 96,228.625 96,228.16667 Z M 56,225 c 0,-0.55 -0.198442,-1 -0.440983,-1 -0.242541,0 -0.719098,0.45 -1.059017,1 -0.339919,0.55 -0.141476,1 0.440983,1 C 55.523442,226 56,225.55 56,225 Z m 37.447214,-3.08541 c -0.321976,-0.52097 -1.011657,-0.68378 -1.532624,-0.3618 -0.520968,0.32197 -0.683779,1.01165 -0.361804,1.53262 0.321976,0.52097 1.011657,0.68378 1.532624,0.3618 0.520968,-0.32197 0.683779,-1.01165 0.361804,-1.53262 z m 4.888175,-6.74006 C 98.02263,213.97854 97.369221,213 96.883369,213 c -1.034114,0 -1.165596,3.10095 -0.234377,5.52767 0.950484,2.47692 2.437696,-0.48017 1.686397,-3.35314 z M 94.5,218 c -0.339919,-0.55 -1.041476,-1 -1.559017,-1 C 92.423442,217 92,217.45 92,218 c 0,0.55 0.701558,1 1.559017,1 0.857459,0 1.280902,-0.45 0.940983,-1 z m 6.5,-4 c 0,-0.55 -0.45,-1 -1,-1 -0.55,0 -1,0.45 -1,1 0,0.55 0.45,1 1,1 0.55,0 1,-0.45 1,-1 z m -57,-3 c 0,-0.55 -0.476558,-1 -1.059017,-1 -0.582459,0 -0.780902,0.45 -0.440983,1 0.339919,0.55 0.816476,1 1.059017,1 C 43.801558,212 44,211.55 44,211 Z m 52.2,-0.2 c -0.933333,-0.93333 -1.466667,-0.93333 -2.4,0 -0.933333,0.93333 -0.666667,1.2 1.2,1.2 1.866667,0 2.133333,-0.26667 1.2,-1.2 z m -2.557143,-3.3 c -0.825,-0.825 -1.812243,-1.5 -2.193873,-1.5 -0.38163,0 -0.133673,0.675 0.551016,1.5 0.684689,0.825 1.671932,1.5 2.193873,1.5 0.521941,0 0.273984,-0.675 -0.551016,-1.5 z m -3.302139,-7.676 c -1.057961,-1.16904 -1.940877,-1.52352 -2.159683,-0.8671 -0.503235,1.5097 1.814378,4.16397 2.997415,3.43281 0.533264,-0.32957 0.164871,-1.45785 -0.837732,-2.56571 z m -46.798962,-9.36932 c 0.811297,-7.57578 -0.08182,-10.02107 -1.021335,-2.79633 -0.346287,2.66291 -0.838618,5.85415 -1.094069,7.09165 -0.255451,1.2375 -0.0417,2.25 0.475002,2.25 0.516702,0 1.254883,-2.94539 1.640402,-6.54532 z M 94,196 c 0,-0.55 -0.45,-1 -1,-1 -0.55,0 -1,0.45 -1,1 0,0.55 0.45,1 1,1 0.55,0 1,-0.45 1,-1 z m 0.457295,-8.0691 C 93.694514,186.6967 89,186.72914 89,187.96862 c 0,0.53273 0.629482,0.72706 1.398849,0.43182 0.769368,-0.29523 1.700462,-0.0488 2.069099,0.5477 0.368637,0.59647 1.096495,0.82105 1.617462,0.49907 0.520968,-0.32197 0.688316,-1.00431 0.371885,-1.51631 z m 5.204986,-1.1809 c -0.277413,-0.6875 -0.504386,-0.125 -0.504386,1.25 0,1.375 0.226973,1.9375 0.504386,1.25 0.277412,-0.6875 0.277412,-1.8125 0,-2.5 z m -0.911814,-7.5 C 98.994588,178.51682 98.305306,178 97.083333,178 95.854996,178 95,178.64569 95,179.57332 c 0,1.83788 3.120444,1.56887 3.750467,-0.32332 z M 74,168 c 0,-0.55 -0.45,-1 -1,-1 -0.55,0 -1,0.45 -1,1 0,0.55 0.45,1 1,1 0.55,0 1,-0.45 1,-1 z m -20,-4 c 0,-0.55 -0.45,-1 -1,-1 -0.55,0 -1,0.45 -1,1 0,0.55 0.45,1 1,1 0.55,0 1,-0.45 1,-1 z m 10,-1 c 0,-0.55 -0.45,-1 -1,-1 -0.55,0 -1,0.45 -1,1 0,0.55 0.45,1 1,1 0.55,0 1,-0.45 1,-1 z m 19,0 c 0,-0.55 -0.45,-1 -1,-1 -0.55,0 -1,0.45 -1,1 0,0.55 0.45,1 1,1 0.55,0 1,-0.45 1,-1 z m 1,-2.44098 c 0,-1.05548 -1.919113,-1.49891 -2.489919,-0.57533 C 81.164618,160.54266 81.583524,161 82.440983,161 83.298442,161 84,160.80156 84,160.55902 Z m 93.48056,103.40952 c -0.35061,-0.5673 -1.04722,-5.36235 -1.54802,-10.65566 -0.5008,-5.29332 -1.14682,-9.8605 -1.43562,-10.14929 -0.54891,-0.54892 -18.52474,2.5854 -21.99692,3.83545 -1.49421,0.53794 -2.50579,2.71548 -4,8.6105 l -2,7.89046 h -14 c -13.53942,0 -14.01003,-0.0703 -14.30487,-2.13797 -0.3573,-2.50567 5.91837,-24.73955 12.80377,-45.36203 6.01207,-18.0068 21.59049,-56.11145 23.55428,-57.61353 2.20737,-1.68839 16.01853,-3.63462 20.46346,-2.88366 7.82683,1.32233 11.40685,6.3549 15.48021,21.76112 C 193.0433,186.89504 206,257.20045 206,261.38681 c 0,1.31957 -0.7118,2.67236 -1.58179,3.0062 -2.74646,1.05392 -26.25288,0.68352 -26.93765,-0.42447 z m 6.12361,-5.69771 c -1.01652,-1.01651 -1.85525,0.51389 -1.02122,1.86338 0.63003,1.01942 0.86558,1.02021 1.2043,0.004 0.2316,-0.69479 0.14921,-1.53513 -0.18308,-1.86742 z m 13.37138,-0.0208 c -0.0134,-0.4125 -0.51109,-2.775 -1.10589,-5.25 -1.13071,-4.70498 -1.52871,-7.11735 -1.74204,-10.55887 -0.21786,-3.51461 -2.50178,-5.77454 -5.02614,-4.97334 -1.48404,0.47102 -2.04609,1.23418 -1.65655,2.2493 0.32427,0.84502 0.0973,2.1296 -0.50444,2.85462 -1.64506,1.98218 -0.71692,5.80686 1.66287,6.85228 1.15684,0.50819 2.95684,2.86643 4,5.24052 1.04315,2.3741 2.45914,4.32081 3.14664,4.32602 0.6875,0.005 1.239,-0.32803 1.22555,-0.74053 z M 138,252.55902 c 0,-0.24254 -0.45,-0.7191 -1,-1.05902 -0.55,-0.33992 -1,-0.14148 -1,0.44098 0,0.58246 0.45,1.05902 1,1.05902 0.55,0 1,-0.19844 1,-0.44098 z m 2,-6.10699 c 0,-0.7337 -0.45,-1.61211 -1,-1.95203 -0.55,-0.33992 -1,0.0835 -1,0.94098 0,0.85746 -0.47656,1.55902 -1.05902,1.55902 -0.58246,0 -0.79305,0.43035 -0.46797,0.95633 0.80741,1.30642 3.52699,0.14649 3.52699,-1.5043 z m 9,-7.32959 c 0,-0.48265 -0.63494,-1.4045 -1.41097,-2.04855 -1.56708,-1.30056 -3.16989,0.17725 -2.08903,1.92611 0.76156,1.23222 3.5,1.32803 3.5,0.12244 z m 30.72917,-1.72661 c -0.3323,-0.33229 -1.1948,-0.36781 -1.91667,-0.0789 -0.79773,0.31922 -0.56078,0.55618 0.60417,0.60416 1.05416,0.0434 1.64479,-0.19293 1.3125,-0.52522 z M 189,235.5 c 0,-0.825 -0.42344,-1.5 -0.94098,-1.5 -1.26098,0 -2.1641,1.56159 -1.36517,2.36052 C 187.82004,237.4867 189,237.04641 189,235.5 Z m -8,-5.5 c 0,-0.55 -0.675,-1 -1.5,-1 -0.825,0 -1.5,0.45 -1.5,1 0,0.55 0.675,1 1.5,1 0.825,0 1.5,-0.45 1.5,-1 z m 3.28314,-6.29547 c 0.28718,-0.74839 -0.27708,-1.35379 -1.33613,-1.43357 -1.20948,-0.0911 -1.64608,0.34968 -1.28314,1.29547 0.6848,1.78457 1.96163,1.85189 2.61927,0.1381 z M 155.93465,214.75 c 1.81447,-4.5375 3.92146,-9.66801 4.68219,-11.40113 1.62818,-3.70934 1.78569,-5.71568 0.38053,-4.84724 -1.10728,0.68433 -4.99737,8.78988 -4.99737,10.41271 0,0.56324 -0.87394,2.72543 -1.94209,4.80487 -2.41705,4.70544 -3.57485,9.28079 -2.34852,9.28079 0.50942,0 2.41078,-3.7125 4.22526,-8.25 z m 15.06133,3 c -0.006,-3.55398 -2.96502,-20.87226 -3.82984,-22.41761 -0.49982,-0.89313 -2.11415,3.03111 -4.47802,10.8855 -2.03303,6.75516 -3.69456,12.61961 -3.69227,13.03211 0.002,0.4125 2.70415,0.75 6.00415,0.75 5.55675,0 5.9997,-0.16622 5.99598,-2.25 z M 184,217.04436 c 0,0.5256 1.0125,0.92011 2.25,0.87669 1.2375,-0.0434 1.66872,-0.31218 0.95826,-0.59724 -0.92635,-0.37169 -0.99281,-0.87849 -0.23493,-1.79167 0.77029,-0.92815 0.50209,-1.91843 -0.9893,-3.65275 -1.87849,-2.18448 -2.02512,-2.21556 -1.79002,-0.37939 0.33802,2.64003 -0.90989,4.50364 -3.00303,4.48469 -1.43118,-0.013 -1.46497,-0.15825 -0.21994,-0.94563 0.80907,-0.51167 1.12843,-1.27292 0.70969,-1.69167 -0.60592,-0.60591 -5.68073,4.09643 -5.68073,5.26379 0,0.16506 1.8,-0.33497 4,-1.11118 2.22502,-0.78503 4,-0.98722 4,-0.45564 z m -34,-2.10338 C 150,214.42344 149.55,214 149,214 c -0.55,0 -1,0.70156 -1,1.55902 0,0.85746 0.45,1.2809 1,0.94098 0.55,-0.33992 1,-1.04148 1,-1.55902 z M 180,211 c 0,-0.55 -0.70156,-1 -1.55902,-1 -0.85746,0 -1.2809,0.45 -0.94098,1 0.33992,0.55 1.04148,1 1.55902,1 C 179.57656,212 180,211.55 180,211 Z M 165.77083,192.1875 C 165.98854,191.53437 165.45417,191 164.58333,191 163.7125,191 163,191.7125 163,192.58333 c 0,1.76593 2.15276,1.45839 2.77083,-0.39583 z M 147,187 c 0,-0.55 -0.45,-1 -1,-1 -0.55,0 -1,0.45 -1,1 0,0.55 0.45,1 1,1 0.55,0 1,-0.45 1,-1 z m 35,-7 c 0,-0.55 -0.19844,-1 -0.44098,-1 -0.24254,0 -0.7191,0.45 -1.05902,1 -0.33992,0.55 -0.14148,1 0.44098,1 0.58246,0 1.05902,-0.45 1.05902,-1 z m -13,-3 c 0,-0.55 -0.45,-1 -1,-1 -0.55,0 -1,0.45 -1,1 0,0.55 0.45,1 1,1 0.55,0 1,-0.45 1,-1 z m 11,-2 c 0,-0.55 -0.45,-1 -1,-1 -0.55,0 -1,0.45 -1,1 0,0.55 0.45,1 1,1 0.55,0 1,-0.45 1,-1 z m 1,-4 c 0,-0.55 -0.675,-1 -1.5,-1 -0.825,0 -1.5,0.45 -1.5,1 0,0.55 0.675,1 1.5,1 0.825,0 1.5,-0.45 1.5,-1 z m -3.5,-2 c 0.33992,-0.55 0.14148,-1 -0.44098,-1 -0.58246,0 -1.05902,0.45 -1.05902,1 0,0.55 0.19844,1 0.44098,1 0.24254,0 0.7191,-0.45 1.05902,-1 z m 89.75281,94.79551 c -0.58719,-0.71253 -2.19825,-3.85752 -3.58013,-6.98887 -1.93819,-4.39193 -13.8659,-26.10051 -15.15857,-27.58878 -0.13478,-0.15518 -2.3306,0.27565 -4.87958,0.9574 L 239,231.41481 v 14.72117 c 0,12.04954 -0.28519,15.00635 -1.57143,16.29259 -2.04823,2.04823 -21.57847,2.30066 -23.23857,0.30036 -0.74552,-0.89829 -0.12155,-15.2149 2.12755,-48.81556 l 3.18245,-47.54449 7,1.802 c 8.5382,2.19797 28.28797,5.00167 34.68876,4.92444 3.92069,-0.0473 4.79861,0.28953 5.35933,2.05619 0.51609,1.62607 0.86357,1.80045 1.50845,0.75701 0.50539,-0.81774 0.3628,-1.65775 -0.35933,-2.11681 -0.85636,-0.5444 -0.77015,-0.77538 0.30279,-0.81129 2.46949,-0.0826 16.36892,-2.73292 18.19689,-3.4697 1.38787,-0.55938 2.00334,0.37022 3.37966,5.10462 1.74438,6.00043 1.52124,17.32816 -0.44275,22.47706 l -0.91836,2.4076 -0.60027,-2.5 c -0.33016,-1.375 -0.49113,-4.86289 -0.35773,-7.75086 0.13835,-2.9949 -0.18708,-5.25149 -0.75744,-5.25233 -0.61381,-9.1e-4 -0.87493,3.28722 -0.67615,8.51423 0.18592,4.88864 0.71833,8.27191 1.25,7.94332 3.90601,-2.41405 -4.37955,10.86574 -9.39524,15.05833 l -4.35276,3.63846 8.2729,15.62376 c 4.55009,8.59307 8.0436,15.99476 7.76336,16.44819 -0.6008,0.97213 -17.79771,12.62309 -19.72127,13.36123 -0.72623,0.27868 -1.80084,-0.0763 -2.38803,-0.78882 z M 281,248 c 0,-0.55 -0.70156,-1 -1.55902,-1 -0.85746,0 -1.2809,0.45 -0.94098,1 0.33992,0.55 1.04148,1 1.55902,1 0.51754,0 0.94098,-0.45 0.94098,-1 z m 3,-2 c 0,-0.55 -0.19844,-1 -0.44098,-1 -0.24254,0 -0.7191,0.45 -1.05902,1 -0.33992,0.55 -0.14148,1 0.44098,1 0.58246,0 1.05902,-0.45 1.05902,-1 z m -17.75,-27.84137 c -0.9625,-1.01276 -2.11443,-1.64456 -2.55984,-1.404 -0.44541,0.24055 0.005,1.05486 1,1.80957 2.6279,1.99243 3.59891,1.73996 1.55984,-0.40557 z M 266,212.94098 c 0,-1.3528 -3.72253,-4.88512 -4.41667,-4.19098 C 261.2625,209.07083 261,208.59746 261,207.69805 c 0,-1.10036 0.57244,-1.45529 1.75,-1.08503 1.49423,0.46983 1.4663,0.31909 -0.19113,-1.03138 -2.53027,-2.06167 -3.6292,-2.00391 -3.20283,0.16836 0.65875,3.35614 1.79574,5.05643 3.71726,5.55892 1.36465,0.35686 1.73628,1.02373 1.26089,2.26258 -0.46036,1.19968 -0.30315,1.52735 0.49587,1.03353 C 265.47353,214.20734 266,213.45852 266,212.94098 Z M 266,208 c 0,-0.55 -0.19844,-1 -0.44098,-1 -0.24254,0 -0.7191,0.45 -1.05902,1 -0.33992,0.55 -0.14148,1 0.44098,1 0.58246,0 1.05902,-0.45 1.05902,-1 z m -12.40948,-6.41857 c 10.78024,-4.92316 15.89893,-20.54929 7.40148,-22.59496 -2.69291,-0.64829 -15.92617,1.67265 -17.37918,3.04808 -0.48795,0.4619 -1.42134,5.86294 -2.07419,12.00233 l -1.18701,11.16251 4.07419,-0.6466 c 2.2408,-0.35564 6.36493,-1.69275 9.16471,-2.97136 z M 262,202.61663 c 0,-0.21085 -0.9,-0.61872 -2,-0.90638 -1.1,-0.28766 -2,-0.11514 -2,0.38337 0,0.49851 0.9,0.90638 2,0.90638 1.1,0 2,-0.17252 2,-0.38337 z m -32.75,-3.27891 c -0.6875,-0.27741 -1.8125,-0.27741 -2.5,0 -0.6875,0.27741 -0.125,0.50439 1.25,0.50439 1.375,0 1.9375,-0.22698 1.25,-0.50439 z M 267,198 c 0,-0.55 -0.70156,-1 -1.55902,-1 -0.85746,0 -1.2809,0.45 -0.94098,1 0.33992,0.55 1.04148,1 1.55902,1 0.51754,0 0.94098,-0.45 0.94098,-1 z m -37.75,-0.66228 c -0.6875,-0.27741 -1.8125,-0.27741 -2.5,0 -0.6875,0.27741 -0.125,0.50439 1.25,0.50439 1.375,0 1.9375,-0.22698 1.25,-0.50439 z M 276,177 c 0,-0.55 -0.19844,-1 -0.44098,-1 -0.24254,0 -0.7191,0.45 -1.05902,1 -0.33992,0.55 -0.14148,1 0.44098,1 0.58246,0 1.05902,-0.45 1.05902,-1 z m -28.31689,-2.1875 c -0.31922,-0.79773 -0.55618,-0.56078 -0.60416,0.60417 -0.0434,1.05416 0.19292,1.64479 0.52522,1.3125 0.33229,-0.3323 0.36781,-1.1948 0.0789,-1.91667 z m 79.719,89.17931 C 317.57598,262.57259 300,255.22389 300,252.5347 c 0,-2.57983 7.91633,-17.53775 9.26116,-17.49899 1.66883,0.0481 16.81218,7.55762 16.29111,8.07869 -0.22644,0.22643 2.19473,0.39983 5.38036,0.38534 6.49053,-0.0295 8.638,-1.26836 9.57225,-5.52196 1.11829,-5.09153 -1.92188,-9.48204 -10.20749,-14.74135 -10.42806,-6.61924 -18.33456,-12.76969 -20.56142,-15.99469 -1.71533,-2.48419 -1.8406,-4.1031 -1.33352,-17.23402 l 0.55966,-14.49228 3.76894,-5.46707 c 3.98774,-5.78442 9.94778,-10.5357 14.52768,-11.58129 1.5173,-0.34641 2.54036,-0.98313 2.27348,-1.41496 -0.26688,-0.43182 1.41669,-0.44561 3.74128,-0.0306 2.32458,0.41497 6.92651,1.03977 10.22651,1.38843 5.62612,0.59443 5.84422,0.54131 3.5,-0.85255 l -2.5,-1.48649 3.57186,-0.0354 c 5.40474,-0.0536 12.35288,2.70383 16.18095,6.42161 4.46718,4.33847 5.92218,9.85697 5.54814,21.04295 l -0.30095,9 H 358 346.5 l -0.5,-7 c -0.57247,-8.01458 -1.25007,-9.50607 -4.30902,-9.48469 -3.19279,0.0223 -4.41985,1.09154 -6.23316,5.43139 -3.32184,7.95029 -0.23638,12.80302 13.99232,22.00671 14.48123,9.36703 19.8956,17.39615 19.9908,29.64489 0.0526,6.77331 -0.32095,8.34283 -3.44094,14.45565 -4.10654,8.04572 -9.56131,12.72363 -17.31644,14.85025 -6.87159,1.88434 -15.01885,2.49213 -21.28145,1.58761 z m 30.23053,-22.4503 c 1.35013,-2.91195 0.88523,-3.55199 -2.54931,-3.50971 -2.48731,0.0306 -2.51118,0.0864 -0.6422,1.5 1.69265,1.28026 1.72465,1.4682 0.25,1.4682 -1.96743,0 -2.26935,1.60002 -0.44113,2.33772 2.05168,0.82787 2.20333,0.74734 3.38264,-1.79621 z M 362,243 c 0,-0.55 -0.45,-1 -1,-1 -0.55,0 -1,0.45 -1,1 0,0.55 0.45,1 1,1 0.55,0 1,-0.45 1,-1 z m -0.19313,-4.52646 c -0.30789,-0.30789 -0.86705,0.24711 -1.24258,1.23333 -0.54268,1.4252 -0.42782,1.54006 0.5598,0.5598 0.68342,-0.67834 0.99067,-1.48524 0.68278,-1.79313 z M 359.5,235 c 0.33992,-0.55 -0.0835,-1 -0.94098,-1 -0.85746,0 -1.55902,0.45 -1.55902,1 0,0.55 0.42344,1 0.94098,1 0.51754,0 1.2191,-0.45 1.55902,-1 z m 2.5,-7 c 0,-0.55 -0.675,-1 -1.5,-1 -0.825,0 -1.5,0.45 -1.5,1 0,0.55 0.675,1 1.5,1 0.825,0 1.5,-0.45 1.5,-1 z m -11.5717,-13.75 c -0.49777,-0.4125 -1.24088,-1.2 -1.65135,-1.75 -0.42591,-0.57068 -0.7529,-0.24868 -0.76164,0.75 -0.009,0.97279 0.72489,1.75 1.65136,1.75 0.91666,0 1.2594,-0.3375 0.76163,-0.75 z M 344,213 c 0,-0.55 -0.45,-1 -1,-1 -0.55,0 -1,0.45 -1,1 0,0.55 0.45,1 1,1 0.55,0 1,-0.45 1,-1 z m 56.21524,50.74753 C 399.51142,262.89137 399.613,258.26487 400.53904,249 l 1.34936,-13.5 -11.55209,-32 c -15.5974,-43.20576 -14.73616,-40.21056 -12.04056,-41.87442 4.29827,-2.65311 18.62295,-7.10733 19.61689,-6.09981 0.52861,0.53582 4.48813,10.16544 8.79894,21.39913 4.3108,11.2337 8.45185,20.62958 9.20232,20.87973 0.8708,0.29027 1.09244,0.0146 0.61259,-0.76176 -0.41354,-0.66913 -0.0497,-2.86501 0.80858,-4.87974 0.85826,-2.01472 4.59467,-10.86313 8.30315,-19.66313 3.70847,-8.8 7.10069,-16.24768 7.53827,-16.55039 1.30508,-0.90285 20.7265,1.55338 21.94901,2.77589 0.71137,0.71137 0.83744,2.17093 0.34128,3.95128 -0.53003,1.90191 -0.91446,2.28959 -1.17801,1.18798 -0.35914,-1.50115 -3.77939,-2.84763 -8.78877,-3.45994 -1.1,-0.13446 -3.40223,-0.68185 -5.11608,-1.21643 -4.87604,-1.52093 -6.67477,0.37431 -2.14967,2.26502 2.03583,0.85062 4.72847,1.55839 5.98363,1.57281 1.25517,0.0144 3.95311,0.80193 5.99544,1.75 l 3.71331,1.72378 -13.32139,32.5 -13.32139,32.5 -0.6998,15.5 c -0.3849,8.525 -1.01126,15.78003 -1.39193,16.1223 -0.38067,0.34226 -5.92544,0.90365 -12.32172,1.24753 -8.71114,0.46833 -11.88697,0.31216 -12.65516,-0.6223 z M 425,240.44098 C 425,228.27122 424.76409,226 423.5,226 c -1.24525,0 -1.52012,2.08044 -1.61848,12.25 -0.15432,15.95518 0.15279,18.46486 2.11142,17.25437 C 424.5938,255.13301 425,249.05713 425,240.44098 Z M 429.22061,216.25 c 0.53935,-2.07956 -0.067,-4.25 -1.18731,-4.25 -0.99942,0 -2.11721,4.05522 -1.42605,5.17354 0.85319,1.38048 2.13311,0.92817 2.61336,-0.92354 z m -13.76332,-6.3191 C 415.14086,209.41891 413.92252,209 412.74985,209 c -2.08072,0 -2.08559,0.034 -0.20201,1.41132 2.00263,1.46436 3.91612,1.14839 2.90945,-0.48042 z M 430,209 c 0,-0.55 -0.45,-1 -1,-1 -0.55,0 -1,0.45 -1,1 0,0.55 0.45,1 1,1 0.55,0 1,-0.45 1,-1 z m -11.5,-3 c 0.33992,-0.55 -0.11008,-1 -1,-1 -0.88992,0 -1.33992,0.45 -1,1 0.33992,0.55 0.78992,1 1,1 0.21008,0 0.66008,-0.45 1,-1 z M 418,202.83333 C 418,202.375 417.325,202 416.5,202 c -0.825,0 -1.5,0.375 -1.5,0.83333 0,0.45834 0.675,0.83334 1.5,0.83334 0.825,0 1.5,-0.375 1.5,-0.83334 z m -2.27083,-2.4375 c -0.33229,-0.33229 -1.1948,-0.36781 -1.91667,-0.0789 -0.79773,0.31922 -0.56078,0.55618 0.60417,0.60416 1.05416,0.0434 1.64479,-0.19293 1.3125,-0.52522 z M 429.5,187 c 0.33992,-0.55 -0.11008,-1 -1,-1 -0.88992,0 -1.33992,0.45 -1,1 0.33992,0.55 0.78992,1 1,1 0.21008,0 0.66008,-0.45 1,-1 z M 387,162 c 0,-0.55 -0.675,-1 -1.5,-1 -0.825,0 -1.5,0.45 -1.5,1 0,0.55 0.675,1 1.5,1 0.825,0 1.5,-0.45 1.5,-1 z m 2.5,0 c 0.33992,-0.55 0.14148,-1 -0.44098,-1 -0.58246,0 -1.05902,0.45 -1.05902,1 0,0.55 0.19844,1 0.44098,1 0.24254,0 0.7191,-0.45 1.05902,-1 z"
         id="path94" />
      <path
         style="fill:#030203"
         d="m 243.85914,171.54665 c -8.91299,-1.27914 -32.81022,-7.05676 -39.13657,-9.46203 -1.49742,-0.56932 -2.72006,-1.60876 -2.71699,-2.30987 C 202.02547,155.22713 211.36338,133 213.254,133 c 0.53016,0 5.75239,2.89367 11.60496,6.43038 l 10.64104,6.43038 24.5,3.07897 c 13.475,1.69344 25.5125,3.30834 26.75,3.58868 2.062,0.46711 2.24872,1.0721 2.23469,7.24064 -0.008,3.70202 -0.40459,7.34541 -0.88038,8.09641 -2.55397,4.03132 -27.40081,6.09857 -44.24517,3.68119 z M 339.5,157.97794 c -2.75,-0.4249 -10.57847,-1.51723 -17.3966,-2.42738 L 309.7068,153.89572 288.3534,139.3425 C 276.60903,131.33823 267,124.15204 267,123.3732 c 0,-2.01622 -4.3773,-3.7463 -7.4973,-2.96323 -3.38233,0.84891 -2.75624,2.79103 1.33624,4.145 2.84031,0.9397 43.33126,27.60817 42.76994,28.16948 -0.12468,0.12469 -15.58765,-1.77489 -34.36215,-4.22128 l -34.13546,-4.44799 -41.14766,-24.74691 c -22.63121,-13.61081 -40.7051,-24.894441 -40.16419,-25.074745 0.54092,-0.180304 25.03307,3.283602 54.42701,7.697565 l 53.44353,8.02539 39.91502,22.37119 c 21.95326,12.30415 41.71502,23.31905 43.91502,24.47756 3.43149,1.807 3.64468,2.09493 1.5,2.02582 -1.375,-0.0443 -4.75,-0.42821 -7.5,-0.85311 z"
         id="path92" />
    </g>
  </g>
</svg>
